<!-- Generated by readme-aura https://github.com/collectioneur/readme-aura -->
<svg width="860" height="220" viewBox="0 0 860 220" xmlns="http://www.w3.org/2000/svg"><defs><clipPath id="satori_bc-id"><path x="0" y="0" width="860" height="220" d="M20,0 h820 a20,20 0 0 1 20,20 v180 a20,20 0 0 1 -20,20 h-820 a20,20 0 0 1 -20,-20 v-180 a20,20 0 0 1 20,-20"/></clipPath></defs><clipPath id="satori_cp-id"><path x="0" y="0" width="860" height="220" d="M20,0 h820 a20,20 0 0 1 20,20 v180 a20,20 0 0 1 -20,20 h-820 a20,20 0 0 1 -20,-20 v-180 a20,20 0 0 1 20,-20"/></clipPath><mask id="satori_om-id"><rect x="1" y="1" width="858" height="218" fill="#fff"/><path width="860" height="220" fill="none" stroke="#000" stroke-width="2" d="M5.8580000000000005,5.8580000000000005 A20,20 0 0 1 20,0 h820 a20,20 0 0 1 20,20 v180 a20,20 0 0 1 -20,20 h-820 a20,20 0 0 1 -20,-20 v-180 A20,20 0 0 1 5.8580000000000005,5.8580000000000005"/></mask><path x="0" y="0" width="860" height="220" fill="#0a0a12" d="M20,0 h820 a20,20 0 0 1 20,20 v180 a20,20 0 0 1 -20,20 h-820 a20,20 0 0 1 -20,-20 v-180 a20,20 0 0 1 20,-20"/><path width="860" height="220" clip-path="url(#satori_bc-id)" fill="none" stroke="rgba(168,85,247,0.14)" stroke-width="2" d="M5.8580000000000005,5.8580000000000005 A20,20 0 0 1 20,0 h820 a20,20 0 0 1 20,20 v180 a20,20 0 0 1 -20,20 h-820 a20,20 0 0 1 -20,-20 v-180 A20,20 0 0 1 5.8580000000000005,5.8580000000000005"/><clipPath id="satori_cp-id-0" clip-path="url(#satori_cp-id)"><rect x="1" y="1" width="860" height="220"/></clipPath><mask id="satori_om-id-0"><rect x="1" y="1" width="860" height="220" fill="#fff" mask="url(#satori_om-id)"/></mask><svg x="1" y="1" width="860" height="220" preserveAspectRatio="none" clip-path="url(#satori_cp-id-0)" mask="url(#satori_om-id-0)"><defs><radialGradient id="hg1" cx="50%" cy="50%" r="50%"><stop offset="0%" stop-color="rgba(236,72,153,0.42)"></stop><stop offset="60%" stop-color="rgba(236,72,153,0.10)"></stop><stop offset="100%" stop-color="rgba(236,72,153,0)"></stop></radialGradient><radialGradient id="hg2" cx="50%" cy="50%" r="50%"><stop offset="0%" stop-color="rgba(139,92,246,0.48)"></stop><stop offset="55%" stop-color="rgba(139,92,246,0.14)"></stop><stop offset="100%" stop-color="rgba(139,92,246,0)"></stop></radialGradient><radialGradient id="hg3" cx="50%" cy="50%" r="50%"><stop offset="0%" stop-color="rgba(96,165,250,0.35)"></stop><stop offset="100%" stop-color="rgba(96,165,250,0)"></stop></radialGradient></defs><ellipse id="ho1" cx="120" cy="190" rx="260" ry="180" fill="url(#hg1)"></ellipse><ellipse id="ho2" cx="740" cy="40" rx="240" ry="180" fill="url(#hg2)"></ellipse><ellipse id="ho3" cx="480" cy="200" rx="200" ry="140" fill="url(#hg3)"></ellipse><style>

    @keyframes h-orb1 { 0%, 100% { transform: translate(0,0); opacity: 0.55; } 50% { transform: translate(35px,-25px); opacity: 0.85; } }
    @keyframes h-orb2 { 0%, 100% { transform: translate(0,0); opacity: 0.45; } 50% { transform: translate(-30px,20px); opacity: 0.75; } }
    @keyframes h-orb3 { 0%, 100% { transform: translate(0,0); opacity: 0.4; } 50% { transform: translate(20px,-15px); opacity: 0.65; } }
    #ho1 { animation: h-orb1 9s ease-in-out infinite; }
    #ho2 { animation: h-orb2 12s ease-in-out infinite 0.6s; }
    #ho3 { animation: h-orb3 10s ease-in-out infinite 1.4s; }
  
</style>
</svg><mask id="satori_om-id-0-0"><rect x="1" y="1" width="0" height="220" fill="#fff" mask="url(#satori_om-id)"/></mask><mask id="satori_om-id-0-0-0"><rect x="1" y="1" width="0" height="220" fill="#fff" mask="url(#satori_om-id)"/></mask><mask id="satori_om-id-0-0-0-0"><rect x="1" y="1" width="0" height="220" fill="#fff" mask="url(#satori_om-id)"/></mask><mask id="satori_om-id-0-0-0-1"><rect x="1" y="1" width="0" height="220" fill="#fff" mask="url(#satori_om-id)"/></mask><mask id="satori_om-id-0-0-0-2"><rect x="1" y="1" width="0" height="220" fill="#fff" mask="url(#satori_om-id)"/></mask><mask id="satori_om-id-0-0-1"><rect x="1" y="1" width="0" height="220" fill="#fff" mask="url(#satori_om-id)"/></mask><mask id="satori_om-id-0-0-1-0"><rect x="1" y="1" width="0" height="220" fill="#fff" mask="url(#satori_om-id)"/></mask><mask id="satori_om-id-0-0-1-1"><rect x="1" y="1" width="0" height="220" fill="#fff" mask="url(#satori_om-id)"/></mask><mask id="satori_om-id-0-0-1-2"><rect x="1" y="1" width="0" height="220" fill="#fff" mask="url(#satori_om-id)"/></mask><mask id="satori_om-id-0-0-2"><rect x="1" y="1" width="0" height="220" fill="#fff" mask="url(#satori_om-id)"/></mask><mask id="satori_om-id-0-0-2-0"><rect x="1" y="1" width="0" height="220" fill="#fff" mask="url(#satori_om-id)"/></mask><mask id="satori_om-id-0-0-2-1"><rect x="1" y="1" width="0" height="220" fill="#fff" mask="url(#satori_om-id)"/></mask><mask id="satori_om-id-0-1"><rect x="1" y="1" width="0" height="220" fill="#fff" mask="url(#satori_om-id)"/></mask><mask id="satori_om-id-0-2"><rect x="1" y="1" width="0" height="220" fill="#fff" mask="url(#satori_om-id)"/></mask><mask id="satori_om-id-0-3"><rect x="1" y="1" width="0" height="220" fill="#fff" mask="url(#satori_om-id)"/></mask><mask id="satori_om-id-1"><rect x="174" y="30" width="512" height="160" fill="#fff" mask="url(#satori_om-id)"/></mask><mask id="satori_om-id-1-0"><rect x="276" y="30" width="309" height="15" fill="#fff" mask="url(#satori_om-id)"/></mask><g mask="url(#satori_om-id)" clip-path="url(#satori_cp-id)"><path fill="rgba(216,180,254,0.75)" d="M280.4 42.1L280.4 42.1Q279.3 42.1 278.5 41.7Q277.7 41.3 277.2 40.6Q276.8 39.9 276.8 38.9L276.8 38.9L276.8 33.3L278.6 33.3L278.6 38.8Q278.6 39.3 278.8 39.7Q279.0 40.1 279.4 40.3Q279.8 40.5 280.4 40.5L280.4 40.5Q280.9 40.5 281.3 40.3Q281.8 40.1 282.0 39.7Q282.2 39.3 282.2 38.8L282.2 38.8L282.2 33.3L284.0 33.3L284.0 38.9Q284.0 39.9 283.5 40.6Q283.1 41.3 282.3 41.7Q281.5 42.1 280.4 42.1ZM290.6 33.3L292.4 33.3L292.4 42L290.6 42L290.6 33.3ZM301.1 32.9L302.7 32.9L299.8 43.3L298.3 43.3L301.1 32.9ZM312.2 42.1L312.2 42.1Q311.1 42.1 310.3 41.7Q309.5 41.3 309.0 40.6Q308.6 39.9 308.6 38.9L308.6 38.9L308.6 33.3L310.4 33.3L310.4 38.8Q310.4 39.3 310.6 39.7Q310.8 40.1 311.2 40.3Q311.7 40.5 312.2 40.5L312.2 40.5Q312.8 40.5 313.2 40.3Q313.6 40.1 313.8 39.7Q314.0 39.3 314.0 38.8L314.0 38.8L314.0 33.3L315.8 33.3L315.8 38.9Q315.8 39.9 315.4 40.6Q314.9 41.3 314.1 41.7Q313.3 42.1 312.2 42.1ZM324.0 42L321.9 42L325.0 37.5L322.2 33.3L324.2 33.3L325.2 34.7Q325.5 35.2 325.6 35.5Q325.8 35.8 326.0 36.1L326.0 36.1Q326 36.2 326.0 36.3L326.0 36.3Q326.1 36.2 326.1 36.1L326.1 36.1Q326.3 35.8 326.5 35.5Q326.6 35.2 326.9 34.7L326.9 34.7L327.9 33.3L329.9 33.3L327.1 37.5L330.2 42L328.0 42L326.8 40.2Q326.6 39.8 326.4 39.5Q326.3 39.3 326.2 39.1L326.2 39.1Q326.1 38.9 326.0 38.8L326.0 38.8Q326.0 38.9 325.9 39.0L325.9 39.0Q325.8 39.3 325.6 39.5Q325.5 39.8 325.2 40.2L325.2 40.2L324.0 42Z M347.2 42L347.2 42L344.1 42L344.1 33.3L347.2 33.3Q348.5 33.3 349.4 33.8Q350.4 34.3 350.9 35.3Q351.4 36.3 351.4 37.6L351.4 37.6Q351.4 39.0 350.9 40.0Q350.4 41.0 349.4 41.5Q348.5 42 347.2 42ZM345.9 34.8L345.9 40.5L347.1 40.5Q347.9 40.5 348.5 40.2Q349.1 39.9 349.3 39.2Q349.6 38.6 349.6 37.6L349.6 37.6Q349.6 36.7 349.3 36.0Q349.0 35.4 348.5 35.1Q347.9 34.8 347.1 34.8L347.1 34.8L345.9 34.8ZM363.6 42L357.8 42L357.8 33.3L363.6 33.3L363.6 34.8L359.5 34.8L359.5 36.9L363.3 36.9L363.3 38.3L359.5 38.3L359.5 40.5L363.6 40.5L363.6 42ZM373.2 42.1L373.2 42.1Q372.2 42.1 371.4 41.8Q370.6 41.5 370.2 40.9Q369.8 40.2 369.7 39.3L369.7 39.3L371.5 39.3Q371.5 39.7 371.8 40.0Q372.0 40.3 372.4 40.5Q372.7 40.6 373.2 40.6L373.2 40.6Q373.7 40.6 374.1 40.5Q374.4 40.3 374.6 40.1Q374.8 39.8 374.8 39.5L374.8 39.5Q374.8 39.2 374.6 39.0Q374.5 38.8 374.1 38.7Q373.8 38.5 373.3 38.4L373.3 38.4L372.3 38.2Q371.2 37.9 370.6 37.3Q370.0 36.7 370.0 35.8L370.0 35.8Q370.0 35.0 370.4 34.4Q370.8 33.8 371.6 33.5Q372.3 33.2 373.3 33.2L373.3 33.2Q374.2 33.2 375.0 33.5Q375.7 33.8 376.1 34.4Q376.5 35.0 376.5 35.8L376.5 35.8L374.8 35.8Q374.7 35.2 374.3 34.9Q373.9 34.7 373.2 34.7L373.2 34.7Q372.8 34.7 372.5 34.8Q372.2 34.9 372.0 35.1Q371.8 35.4 371.8 35.7L371.8 35.7Q371.8 36.0 372.0 36.2Q372.2 36.4 372.5 36.5Q372.8 36.7 373.2 36.8L373.2 36.8L374.0 37.0Q374.6 37.1 375.0 37.3Q375.5 37.5 375.9 37.8Q376.2 38.1 376.4 38.5Q376.6 39.0 376.6 39.5L376.6 39.5Q376.6 40.3 376.2 40.9Q375.8 41.5 375.1 41.8Q374.3 42.1 373.2 42.1ZM382.9 33.3L384.7 33.3L384.7 42L382.9 42L382.9 33.3ZM395.1 42.1L395.1 42.1Q393.9 42.1 393.0 41.6Q392.1 41.0 391.5 40.0Q391.0 39.0 391.0 37.6L391.0 37.6Q391.0 36.2 391.6 35.2Q392.1 34.2 393.0 33.7Q393.9 33.2 395.1 33.2L395.1 33.2Q395.8 33.2 396.5 33.4Q397.1 33.6 397.6 34.0Q398.1 34.4 398.4 34.9Q398.7 35.4 398.8 36.1L398.8 36.1L397.0 36.1Q396.9 35.8 396.7 35.5Q396.6 35.3 396.3 35.1Q396.1 34.9 395.8 34.8Q395.5 34.7 395.1 34.7L395.1 34.7Q394.4 34.7 393.9 35.1Q393.4 35.4 393.1 36.1Q392.8 36.7 392.8 37.6Q392.8 38.6 393.1 39.2Q393.4 39.8 393.9 40.2Q394.4 40.5 395.1 40.5L395.1 40.5Q395.8 40.5 396.2 40.3Q396.7 40.1 396.9 39.6L396.9 39.6Q397.2 39.2 397.2 38.7L397.2 38.7L395.3 38.7L395.3 37.3L398.9 37.3L398.9 38.4Q398.9 39.6 398.4 40.4Q397.9 41.2 397.1 41.7Q396.2 42.1 395.1 42.1ZM407.1 42L405.3 42L405.3 33.3L407.3 33.3L410.0 37.7Q410.2 38.0 410.5 38.4Q410.7 38.8 410.9 39.3L410.9 39.3Q411.0 39.6 411.1 39.8L411.1 39.8Q411.1 39.6 411.1 39.4L411.1 39.4Q411.1 38.8 411.0 38.3Q411.0 37.8 411.0 37.5L411.0 37.5L411.0 33.3L412.8 33.3L412.8 42L410.8 42L408.3 38.0Q408.1 37.5 407.8 37.1Q407.6 36.7 407.3 36.2L407.3 36.2Q407.2 35.9 407.0 35.5L407.0 35.5Q407.0 35.8 407.0 36.2L407.0 36.2Q407.1 36.7 407.1 37.2Q407.1 37.7 407.1 38.0L407.1 38.0L407.1 42ZM425.3 42L419.4 42L419.4 33.3L425.3 33.3L425.3 34.8L421.2 34.8L421.2 36.9L425.0 36.9L425.0 38.3L421.2 38.3L421.2 40.5L425.3 40.5L425.3 42ZM433.5 42L431.7 42L431.7 33.3L435.1 33.3Q436.1 33.3 436.8 33.6Q437.5 34.0 437.9 34.6Q438.2 35.3 438.2 36.1Q438.2 37.0 437.9 37.6Q437.5 38.2 436.8 38.5L436.8 38.5Q436.7 38.6 436.7 38.6L436.7 38.6L438.5 42L436.6 42L434.9 38.9L433.5 38.9L433.5 42ZM433.5 34.7L433.5 37.4L434.8 37.4Q435.3 37.4 435.7 37.3Q436.0 37.1 436.2 36.8Q436.4 36.5 436.4 36.1L436.4 36.1Q436.4 35.7 436.2 35.4Q436.0 35.1 435.7 34.9Q435.3 34.7 434.8 34.7L434.8 34.7L433.5 34.7Z M453.6 38.9L453.6 38.9Q453.2 38.9 452.9 38.6Q452.6 38.3 452.6 37.9L452.6 37.9Q452.6 37.4 452.9 37.1Q453.2 36.8 453.6 36.8L453.6 36.8Q454.1 36.8 454.4 37.1Q454.7 37.4 454.7 37.9L454.7 37.9Q454.7 38.3 454.4 38.6Q454.1 38.9 453.6 38.9Z M472.4 42L472.4 42L469.3 42L469.3 33.3L472.4 33.3Q473.7 33.3 474.6 33.8Q475.6 34.3 476.1 35.3Q476.6 36.3 476.6 37.6L476.6 37.6Q476.6 39.0 476.1 40.0Q475.6 41.0 474.6 41.5Q473.7 42 472.4 42ZM471.1 34.8L471.1 40.5L472.3 40.5Q473.1 40.5 473.7 40.2Q474.3 39.9 474.5 39.2Q474.8 38.6 474.8 37.6L474.8 37.6Q474.8 36.7 474.5 36.0Q474.2 35.4 473.7 35.1Q473.1 34.8 472.3 34.8L472.3 34.8L471.1 34.8ZM488.8 42L482.9 42L482.9 33.3L488.8 33.3L488.8 34.8L484.7 34.8L484.7 36.9L488.5 36.9L488.5 38.3L484.7 38.3L484.7 40.5L488.8 40.5L488.8 42ZM500.1 42L497.8 42L494.7 33.3L496.7 33.3L498.1 37.5Q498.4 38.3 498.6 39.2L498.6 39.2Q498.8 39.9 499.0 40.6L499.0 40.6Q499.2 39.9 499.3 39.2L499.3 39.2Q499.6 38.3 499.8 37.5L499.8 37.5L501.1 33.3L503.1 33.3L500.1 42ZM515.0 42L509.2 42L509.2 33.3L515.0 33.3L515.0 34.8L511.0 34.8L511.0 36.9L514.7 36.9L514.7 38.3L511.0 38.3L511.0 40.5L515.0 40.5L515.0 42ZM527.0 42L521.5 42L521.5 33.3L523.3 33.3L523.3 40.5L527.0 40.5L527.0 42ZM537.1 42.1L537.1 42.1Q535.9 42.1 535.0 41.6Q534.1 41.1 533.6 40.1Q533.0 39.1 533.0 37.6L533.0 37.6Q533.0 36.2 533.6 35.2Q534.1 34.2 535.0 33.7Q535.9 33.2 537.1 33.2L537.1 33.2Q538.3 33.2 539.2 33.7Q540.1 34.2 540.6 35.2Q541.2 36.2 541.2 37.6L541.2 37.6Q541.2 39.1 540.6 40.1Q540.1 41.1 539.2 41.6Q538.3 42.1 537.1 42.1ZM537.1 40.5L537.1 40.5Q537.8 40.5 538.3 40.2Q538.8 39.9 539.1 39.2Q539.4 38.6 539.4 37.6L539.4 37.6Q539.4 36.7 539.1 36.0Q538.8 35.4 538.3 35.1Q537.8 34.7 537.1 34.7L537.1 34.7Q536.4 34.7 535.9 35.1Q535.4 35.4 535.1 36.1Q534.8 36.7 534.8 37.6L534.8 37.6Q534.8 38.6 535.1 39.2Q535.4 39.9 535.9 40.2Q536.4 40.5 537.1 40.5ZM549.3 42L547.5 42L547.5 33.3L550.9 33.3Q551.9 33.3 552.6 33.6Q553.3 34.0 553.7 34.7Q554.0 35.4 554.0 36.2L554.0 36.2Q554.0 37.1 553.7 37.7Q553.3 38.4 552.6 38.8Q551.9 39.1 550.9 39.1L550.9 39.1L549.3 39.1L549.3 42ZM549.3 34.7L549.3 37.7L550.6 37.7Q551.1 37.7 551.5 37.5Q551.9 37.3 552.0 37.0Q552.2 36.7 552.2 36.2Q552.2 35.8 552.0 35.4Q551.9 35.1 551.5 34.9Q551.1 34.7 550.6 34.7L550.6 34.7L549.3 34.7ZM566.1 42L560.3 42L560.3 33.3L566.1 33.3L566.1 34.8L562.1 34.8L562.1 36.9L565.8 36.9L565.8 38.3L562.1 38.3L562.1 40.5L566.1 40.5L566.1 42ZM574.4 42L572.6 42L572.6 33.3L576.0 33.3Q577.0 33.3 577.7 33.6Q578.4 34.0 578.7 34.6Q579.1 35.3 579.1 36.1Q579.1 37.0 578.7 37.6Q578.4 38.2 577.7 38.5L577.7 38.5Q577.6 38.6 577.6 38.6L577.6 38.6L579.4 42L577.4 42L575.8 38.9L574.4 38.9L574.4 42ZM574.4 34.7L574.4 37.4L575.7 37.4Q576.2 37.4 576.6 37.3Q576.9 37.1 577.1 36.8Q577.3 36.5 577.3 36.1L577.3 36.1Q577.3 35.7 577.1 35.4Q576.9 35.1 576.6 34.9Q576.2 34.7 575.7 34.7L575.7 34.7L574.4 34.7Z "/></g><mask id="satori_om-id-1-1"><rect x="186" y="61" width="488" height="44" fill="#fff" mask="url(#satori_om-id)"/></mask><mask id="satori_om-id-1-1-0"><rect x="186" y="61" width="249" height="44" fill="#fff" mask="url(#satori_om-id)"/></mask><g mask="url(#satori_om-id)" clip-path="url(#satori_cp-id)"><path fill="#ffffff" d="M193.8 99L189.9 99L189.9 67.0L195.7 67.0L203.6 87.2Q203.8 87.9 204.2 89.0Q204.5 90.0 204.9 91.3Q205.3 92.5 205.7 93.7L205.7 93.7Q205.8 94.1 205.9 94.5L205.9 94.5Q206.0 94.2 206.1 93.8L206.1 93.8Q206.5 92.6 206.9 91.4Q207.3 90.1 207.6 89.0Q208 87.9 208.3 87.2L208.3 87.2L216.1 67.0L221.9 67.0L221.9 99L217.9 99L217.9 80.7Q217.9 79.7 217.9 78.5Q217.9 77.2 217.9 75.8Q217.9 74.4 218.0 73.0L218.0 73.0Q218.0 72.1 218.0 71.3L218.0 71.3Q217.7 72.3 217.4 73.2L217.4 73.2Q216.9 74.7 216.4 76.2Q215.9 77.6 215.5 78.8Q215.1 79.9 214.8 80.7L214.8 80.7L207.6 99L204.1 99L196.8 80.7Q196.5 80.0 196.1 78.8Q195.7 77.7 195.2 76.3Q194.7 74.9 194.2 73.3L194.2 73.3Q193.9 72.4 193.6 71.4L193.6 71.4Q193.6 72.1 193.6 72.8L193.6 72.8Q193.7 74.2 193.7 75.6Q193.7 77.0 193.7 78.3Q193.8 79.7 193.8 80.7L193.8 80.7L193.8 99ZM236.3 99.3L236.3 99.3Q233.9 99.3 232.0 98.3Q230.2 97.3 229.2 95.3Q228.1 93.3 228.1 90.2L228.1 90.2L228.1 75.0L232.0 75.0L232.0 89.9Q232.0 92.7 233.5 94.3Q234.9 95.8 237.4 95.8L237.4 95.8Q239.2 95.8 240.5 95.1Q241.9 94.3 242.7 92.9Q243.5 91.4 243.5 89.4L243.5 89.4L243.5 75.0L247.4 75.0L247.4 99L243.6 99L243.6 94.5Q242.6 96.9 241.0 97.9L241.0 97.9Q238.9 99.3 236.3 99.3ZM257.0 84.6L257.0 84.6L257.0 99L253.2 99L253.2 67.0L257.0 67.0L257.0 79.1Q258.0 77.1 259.5 76.1L259.5 76.1Q261.5 74.7 264.2 74.7L264.2 74.7Q266.7 74.7 268.5 75.7Q270.3 76.7 271.4 78.7Q272.4 80.7 272.4 83.7L272.4 83.7L272.4 99L268.5 99L268.5 84.1Q268.5 81.3 267.0 79.7Q265.6 78.2 263.1 78.2L263.1 78.2Q261.4 78.2 260.0 78.9Q258.6 79.7 257.8 81.1Q257.0 82.5 257.0 84.6ZM284.9 99.6L284.9 99.6Q282.6 99.6 280.8 98.7Q278.9 97.8 277.8 96.2Q276.7 94.5 276.7 92.2L276.7 92.2Q276.7 90.1 277.5 88.8Q278.3 87.5 279.7 86.8Q281.1 86.0 282.7 85.7Q284.4 85.3 286.1 85.1L286.1 85.1Q288.2 84.8 289.6 84.7Q290.9 84.5 291.6 84.2Q292.2 83.8 292.2 82.9L292.2 82.9L292.2 82.8Q292.2 81.3 291.7 80.2Q291.1 79.2 290.0 78.6Q288.9 78.1 287.2 78.1L287.2 78.1Q285.5 78.1 284.3 78.6Q283.0 79.1 282.3 80.0Q281.5 80.8 281.1 81.6L281.1 81.6L277.4 80.4Q278.3 78.2 279.9 76.9Q281.5 75.7 283.4 75.2Q285.2 74.7 287.1 74.7L287.1 74.7Q288.3 74.7 289.8 75.0Q291.4 75.3 292.8 76.1Q294.2 77.0 295.2 78.7Q296.1 80.4 296.1 83.2L296.1 83.2L296.1 99L292.3 99L292.3 95.7L292.0 95.7Q291.6 96.6 290.7 97.5Q289.8 98.4 288.4 99.0Q286.9 99.6 284.9 99.6ZM285.6 96.1L285.6 96.1Q287.7 96.1 289.2 95.3Q290.7 94.5 291.5 93.1Q292.2 91.8 292.2 90.3L292.2 90.3L292.2 87.0Q292.0 87.3 291.2 87.5Q290.4 87.7 289.4 87.9Q288.4 88.1 287.4 88.2Q286.4 88.3 285.9 88.4L285.9 88.4Q284.5 88.5 283.3 89.0Q282.1 89.4 281.3 90.2Q280.6 91.0 280.6 92.4L280.6 92.4Q280.6 93.6 281.2 94.4Q281.9 95.3 283.0 95.7Q284.1 96.1 285.6 96.1ZM305.8 99L301.9 99L301.9 75.0L305.6 75.0L305.7 79.4Q306.1 78.1 306.9 77.1L306.9 77.1Q308.0 75.8 309.4 75.2Q310.8 74.6 312.4 74.6L312.4 74.6Q315.0 74.6 316.6 76.2L316.6 76.2Q318.0 77.5 318.5 79.4L318.5 79.4Q319.0 78.2 319.8 77.3L319.8 77.3Q320.9 76.0 322.5 75.3Q324.2 74.6 326.1 74.6L326.1 74.6Q328.2 74.6 329.9 75.5Q331.6 76.4 332.6 78.2Q333.6 80.0 333.6 82.8L333.6 82.8L333.6 99L329.8 99L329.8 82.9Q329.8 80.3 328.3 79.2Q326.8 78.1 324.9 78.1L324.9 78.1Q323.3 78.1 322.1 78.8Q321.0 79.4 320.3 80.6Q319.7 81.8 319.7 83.3L319.7 83.3L319.7 99L315.8 99L315.8 82.5Q315.8 80.5 314.5 79.3Q313.2 78.1 311.1 78.1L311.1 78.1Q309.7 78.1 308.5 78.7Q307.3 79.4 306.5 80.7Q305.8 82.0 305.8 83.9L305.8 83.9L305.8 99ZM343.3 99L339.4 99L339.4 75.0L343.2 75.0L343.2 79.4Q343.7 78.1 344.5 77.1L344.5 77.1Q345.5 75.8 347.0 75.2Q348.4 74.6 349.9 74.6L349.9 74.6Q352.6 74.6 354.2 76.2L354.2 76.2Q355.5 77.5 356.1 79.4L356.1 79.4Q356.5 78.2 357.3 77.3L357.3 77.3Q358.5 76.0 360.1 75.3Q361.7 74.6 363.6 74.6L363.6 74.6Q365.7 74.6 367.4 75.5Q369.1 76.4 370.2 78.2Q371.2 80.0 371.2 82.8L371.2 82.8L371.2 99L367.3 99L367.3 82.9Q367.3 80.3 365.9 79.2Q364.4 78.1 362.5 78.1L362.5 78.1Q360.8 78.1 359.7 78.8Q358.5 79.4 357.9 80.6Q357.2 81.8 357.2 83.3L357.2 83.3L357.2 99L353.4 99L353.4 82.5Q353.4 80.5 352.0 79.3Q350.7 78.1 348.7 78.1L348.7 78.1Q347.3 78.1 346.0 78.7Q344.8 79.4 344.0 80.7Q343.3 82.0 343.3 83.9L343.3 83.9L343.3 99ZM383.7 99.6L383.7 99.6Q381.4 99.6 379.6 98.7Q377.7 97.8 376.6 96.2Q375.5 94.5 375.5 92.2L375.5 92.2Q375.5 90.1 376.3 88.8Q377.1 87.5 378.5 86.8Q379.9 86.0 381.5 85.7Q383.2 85.3 384.9 85.1L384.9 85.1Q387.0 84.8 388.4 84.7Q389.7 84.5 390.4 84.2Q391.0 83.8 391.0 82.9L391.0 82.9L391.0 82.8Q391.0 81.3 390.5 80.2Q389.9 79.2 388.8 78.6Q387.7 78.1 386.0 78.1L386.0 78.1Q384.3 78.1 383.0 78.6Q381.8 79.1 381.1 80.0Q380.3 80.8 379.9 81.6L379.9 81.6L376.2 80.4Q377.1 78.2 378.7 76.9Q380.3 75.7 382.1 75.2Q384.0 74.7 385.9 74.7L385.9 74.7Q387.1 74.7 388.6 75.0Q390.2 75.3 391.6 76.1Q393.0 77.0 394.0 78.7Q394.9 80.4 394.9 83.2L394.9 83.2L394.9 99L391.1 99L391.1 95.7L390.8 95.7Q390.4 96.6 389.5 97.5Q388.6 98.4 387.2 99.0Q385.7 99.6 383.7 99.6ZM384.4 96.1L384.4 96.1Q386.5 96.1 388.0 95.3Q389.5 94.5 390.2 93.1Q391.0 91.8 391.0 90.3L391.0 90.3L391.0 87.0Q390.8 87.3 390.0 87.5Q389.2 87.7 388.2 87.9Q387.2 88.1 386.2 88.2Q385.2 88.3 384.7 88.4L384.7 88.4Q383.3 88.5 382.1 89.0Q380.9 89.4 380.1 90.2Q379.4 91.0 379.4 92.4L379.4 92.4Q379.4 93.6 380.0 94.4Q380.7 95.3 381.8 95.7Q382.9 96.1 384.4 96.1ZM409.7 99.5L409.7 99.5Q406.7 99.5 404.4 98.0Q402.1 96.5 400.8 93.7Q399.5 90.9 399.5 87.1L399.5 87.1Q399.5 83.3 400.8 80.5Q402.1 77.7 404.4 76.2Q406.7 74.7 409.7 74.7L409.7 74.7Q412.0 74.7 413.4 75.5Q414.8 76.2 415.5 77.2Q416.3 78.2 416.7 78.8L416.7 78.8L417.0 78.8L417.0 67.0L420.8 67.0L420.8 99L417.1 99L417.1 95.3L416.7 95.3Q416.3 95.9 415.5 96.9Q414.7 97.9 413.4 98.7Q412.0 99.5 409.7 99.5ZM410.3 96.1L410.3 96.1Q412.4 96.1 414.0 94.9Q415.5 93.8 416.2 91.7Q417.0 89.7 417.0 87.0L417.0 87.0Q417.0 84.3 416.2 82.4Q415.5 80.4 414.0 79.3Q412.5 78.1 410.3 78.1L410.3 78.1Q408.0 78.1 406.5 79.3Q405.0 80.5 404.2 82.5Q403.4 84.5 403.4 87.0L403.4 87.0Q403.4 89.5 404.2 91.6Q405.0 93.6 406.5 94.8Q408.0 96.1 410.3 96.1Z "/></g><mask id="satori_om-id-1-1-1"><rect x="435" y="61" width="118" height="44" fill="#fff" mask="url(#satori_om-id)"/></mask><g mask="url(#satori_om-id)" clip-path="url(#satori_cp-id)"><path fill="#ffffff" d="M444.5 99L437.9 99L437.9 67.0L450.4 67.0Q454.0 67.0 456.6 68.3Q459.1 69.6 460.5 71.9Q461.8 74.3 461.8 77.4Q461.8 80.6 460.5 82.9Q459.1 85.1 456.5 86.3L456.5 86.3Q456.3 86.4 456.2 86.5L456.2 86.5L463.0 99L455.7 99L449.6 87.6L444.5 87.6L444.5 99ZM444.5 72.4L444.5 82.3L449.2 82.3Q451.2 82.3 452.5 81.7Q453.8 81.2 454.4 80.1Q455.1 79.0 455.1 77.4L455.1 77.4Q455.1 75.8 454.4 74.7Q453.8 73.6 452.5 73.0Q451.2 72.4 449.2 72.4L449.2 72.4L444.5 72.4ZM473.9 99.3L473.9 99.3Q471.4 99.3 469.6 98.2Q467.7 97.1 466.7 95.1Q465.6 93.1 465.6 90.3L465.6 90.3L465.6 75.0L472.1 75.0L472.1 89.1Q472.1 91.4 473.3 92.6Q474.4 93.9 476.4 93.9L476.4 93.9Q477.8 93.9 478.9 93.3Q479.9 92.7 480.5 91.6Q481.1 90.5 481.1 88.9L481.1 88.9L481.1 75.0L487.6 75.0L487.6 99L481.5 99L481.4 94.0Q480.5 96.3 478.9 97.7L478.9 97.7Q476.9 99.3 473.9 99.3ZM498.5 85.1L498.5 85.1L498.5 99L492.0 99L492.0 67.0L498.4 67.0L498.4 79.6Q499.3 77.6 500.7 76.3L500.7 76.3Q502.6 74.7 505.7 74.7L505.7 74.7Q508.2 74.7 510.0 75.8Q511.9 76.8 512.9 78.9Q514.0 80.9 514.0 83.7L514.0 83.7L514.0 99L507.5 99L507.5 84.8Q507.5 82.6 506.3 81.3Q505.2 80.1 503.1 80.1L503.1 80.1Q501.8 80.1 500.7 80.7Q499.7 81.3 499.1 82.4Q498.5 83.5 498.5 85.1ZM526.7 99.3L526.7 99.3Q524.2 99.3 522.3 98.2Q520.5 97.1 519.5 95.1Q518.4 93.1 518.4 90.3L518.4 90.3L518.4 75.0L524.9 75.0L524.9 89.1Q524.9 91.4 526.0 92.6Q527.2 93.9 529.2 93.9L529.2 93.9Q530.6 93.9 531.6 93.3Q532.7 92.7 533.3 91.6Q533.9 90.5 533.9 88.9L533.9 88.9L533.9 75.0L540.3 75.0L540.3 99L534.2 99L534.2 94.0Q533.3 96.3 531.6 97.7L531.6 97.7Q529.7 99.3 526.7 99.3ZM544.8 67.0L551.3 67.0L551.3 99L544.8 99L544.8 67.0Z "/></g><mask id="satori_om-id-1-1-2"><rect x="553" y="61" width="121" height="44" fill="#fff" mask="url(#satori_om-id)"/></mask><g mask="url(#satori_om-id)" clip-path="url(#satori_cp-id)"><path fill="#ffffff" d="M576.1 99.4L576.1 99.4Q571.9 99.4 569.2 96.9Q566.5 94.4 566.5 89.8L566.5 89.8L566.5 88.1L570.6 88.1L570.6 89.8Q570.6 92.8 572.1 94.3Q573.6 95.8 576.1 95.8L576.1 95.8Q578.5 95.8 580.0 94.3Q581.5 92.8 581.5 89.8L581.5 89.8L581.5 67.0L585.6 67.0L585.6 89.8Q585.6 94.4 583.0 96.9Q580.3 99.4 576.1 99.4ZM598.6 99.6L598.6 99.6Q596.3 99.6 594.5 98.7Q592.6 97.8 591.5 96.2Q590.4 94.5 590.4 92.2L590.4 92.2Q590.4 90.1 591.2 88.8Q592.1 87.5 593.4 86.8Q594.8 86.0 596.4 85.7Q598.1 85.3 599.8 85.1L599.8 85.1Q601.9 84.8 603.3 84.7Q604.6 84.5 605.3 84.2Q605.9 83.8 605.9 82.9L605.9 82.9L605.9 82.8Q605.9 81.3 605.4 80.2Q604.8 79.2 603.7 78.6Q602.6 78.1 600.9 78.1L600.9 78.1Q599.2 78.1 598.0 78.6Q596.7 79.1 596.0 80.0Q595.2 80.8 594.8 81.6L594.8 81.6L591.1 80.4Q592.0 78.2 593.6 76.9Q595.2 75.7 597.1 75.2Q599.0 74.7 600.8 74.7L600.8 74.7Q602.0 74.7 603.5 75.0Q605.1 75.3 606.5 76.1Q607.9 77.0 608.9 78.7Q609.8 80.4 609.8 83.2L609.8 83.2L609.8 99L606 99L606 95.7L605.7 95.7Q605.3 96.6 604.4 97.5Q603.5 98.4 602.1 99.0Q600.7 99.6 598.6 99.6ZM599.3 96.1L599.3 96.1Q601.4 96.1 602.9 95.3Q604.4 94.5 605.2 93.1Q605.9 91.8 605.9 90.3L605.9 90.3L605.9 87.0Q605.7 87.3 604.9 87.5Q604.1 87.7 603.1 87.9Q602.1 88.1 601.1 88.2Q600.2 88.3 599.6 88.4L599.6 88.4Q598.2 88.5 597.0 89.0Q595.8 89.4 595.0 90.2Q594.3 91.0 594.3 92.4L594.3 92.4Q594.3 93.6 595.0 94.4Q595.6 95.3 596.7 95.7Q597.8 96.1 599.3 96.1ZM624.6 99.5L624.6 99.5Q621.6 99.5 619.3 98.0Q617.0 96.5 615.7 93.7Q614.4 90.9 614.4 87.1L614.4 87.1Q614.4 83.3 615.7 80.5Q617.0 77.7 619.3 76.2Q621.6 74.7 624.6 74.7L624.6 74.7Q627.0 74.7 628.3 75.5Q629.7 76.2 630.4 77.2Q631.2 78.2 631.6 78.8L631.6 78.8L631.9 78.8L631.9 67.0L635.7 67.0L635.7 99L632.0 99L632.0 95.3L631.6 95.3Q631.2 95.9 630.4 96.9Q629.7 97.9 628.3 98.7Q626.9 99.5 624.6 99.5ZM625.2 96.1L625.2 96.1Q627.4 96.1 628.9 94.9Q630.4 93.8 631.1 91.7Q631.9 89.7 631.9 87.0L631.9 87.0Q631.9 84.3 631.2 82.4Q630.4 80.4 628.9 79.3Q627.4 78.1 625.2 78.1L625.2 78.1Q622.9 78.1 621.4 79.3Q619.9 80.5 619.1 82.5Q618.4 84.5 618.4 87.0L618.4 87.0Q618.4 89.5 619.1 91.6Q619.9 93.6 621.4 94.8Q622.9 96.1 625.2 96.1ZM645.4 99L641.5 99L641.5 75.0L645.4 75.0L645.4 99ZM643.5 71.0L643.5 71.0Q642.4 71.0 641.6 70.3Q640.8 69.5 640.8 68.5L640.8 68.5Q640.8 67.4 641.6 66.7Q642.4 65.9 643.5 65.9L643.5 65.9Q644.6 65.9 645.4 66.7Q646.2 67.4 646.2 68.5L646.2 68.5Q646.2 69.5 645.4 70.3Q644.6 71.0 643.5 71.0ZM660.2 99.5L660.2 99.5Q657.2 99.5 654.9 98.0Q652.6 96.5 651.3 93.7Q650.0 90.9 650.0 87.1L650.0 87.1Q650.0 83.3 651.3 80.5Q652.6 77.7 654.9 76.2Q657.2 74.7 660.2 74.7L660.2 74.7Q662.6 74.7 663.9 75.5Q665.3 76.2 666.0 77.2Q666.8 78.2 667.2 78.8L667.2 78.8L667.5 78.8L667.5 67.0L671.3 67.0L671.3 99L667.6 99L667.6 95.3L667.2 95.3Q666.8 95.9 666.0 96.9Q665.3 97.9 663.9 98.7Q662.5 99.5 660.2 99.5ZM660.8 96.1L660.8 96.1Q663.0 96.1 664.5 94.9Q666.0 93.8 666.7 91.7Q667.5 89.7 667.5 87.0L667.5 87.0Q667.5 84.3 666.8 82.4Q666.0 80.4 664.5 79.3Q663.0 78.1 660.8 78.1L660.8 78.1Q658.5 78.1 657.0 79.3Q655.5 80.5 654.7 82.5Q654.0 84.5 654.0 87.0L654.0 87.0Q654.0 89.5 654.7 91.6Q655.5 93.6 657.0 94.8Q658.5 96.1 660.8 96.1Z "/></g><mask id="satori_om-id-1-2"><rect x="174" y="119" width="512" height="19" fill="#fff" mask="url(#satori_om-id)"/></mask><g mask="url(#satori_om-id)" clip-path="url(#satori_cp-id)"><path fill="rgba(230,225,255,0.75)" d="M179.0 135L179.0 135L175.4 135L175.4 123.4L179.2 123.4Q180.9 123.4 182.1 124.1Q183.3 124.8 183.9 126.1Q184.6 127.4 184.6 129.2L184.6 129.2Q184.6 131.0 183.9 132.3Q183.3 133.6 182.1 134.3Q180.8 135 179.0 135ZM176.9 124.7L176.9 133.7L178.9 133.7Q180.4 133.7 181.3 133.1Q182.2 132.6 182.7 131.6Q183.2 130.6 183.2 129.2L183.2 129.2Q183.2 127.8 182.7 126.8Q182.2 125.8 181.3 125.2Q180.4 124.7 179.1 124.7L179.1 124.7L176.9 124.7ZM190.5 135.2L190.5 135.2Q189.2 135.2 188.3 134.6Q187.4 134.1 186.9 133.1Q186.4 132.0 186.4 130.7Q186.4 129.4 186.8 128.3Q187.3 127.3 188.2 126.7Q189.1 126.2 190.3 126.2L190.3 126.2Q191.0 126.2 191.7 126.4Q192.3 126.6 192.9 127.1Q193.4 127.6 193.8 128.5Q194.1 129.3 194.1 130.5L194.1 130.5L194.1 131.1L187.8 131.1Q187.8 132.0 188.1 132.6L188.1 132.6Q188.5 133.2 189.1 133.6Q189.7 133.9 190.5 133.9L190.5 133.9Q191.0 133.9 191.4 133.8Q191.8 133.6 192.1 133.3Q192.4 133.0 192.6 132.6L192.6 132.6L194.0 133.0Q193.8 133.6 193.3 134.1Q192.8 134.6 192.1 134.9Q191.4 135.2 190.5 135.2ZM187.8 129.9L187.8 129.9L192.7 129.9Q192.6 129.3 192.4 128.8L192.4 128.8Q192.1 128.2 191.6 127.8Q191.1 127.4 190.3 127.4Q189.5 127.4 188.9 127.8Q188.4 128.2 188.1 128.8L188.1 128.8Q187.8 129.3 187.8 129.9ZM199.1 135.2L199.1 135.2Q198.2 135.2 197.5 134.9Q196.8 134.7 196.3 134.1Q195.9 133.6 195.7 132.9L195.7 132.9L197.1 132.6Q197.2 133.3 197.8 133.6Q198.3 134.0 199.1 134.0L199.1 134.0Q200.0 134.0 200.5 133.6Q201.1 133.2 201.1 132.6L201.1 132.6Q201.1 132.2 200.7 131.9Q200.4 131.6 199.8 131.4L199.8 131.4L198.3 131.1Q197.1 130.8 196.6 130.2Q196.0 129.6 196.0 128.7L196.0 128.7Q196.0 128.0 196.4 127.4Q196.8 126.8 197.6 126.5Q198.3 126.2 199.2 126.2L199.2 126.2Q200.1 126.2 200.7 126.4Q201.4 126.7 201.8 127.2Q202.2 127.6 202.4 128.3L202.4 128.3L201.1 128.6Q200.9 128.1 200.5 127.7Q200.1 127.4 199.2 127.4L199.2 127.4Q198.4 127.4 197.9 127.7Q197.4 128.1 197.4 128.6L197.4 128.6Q197.4 129.1 197.8 129.4Q198.1 129.7 198.9 129.9L198.9 129.9L200.2 130.2Q201.4 130.5 202.0 131.1Q202.5 131.6 202.5 132.5L202.5 132.5Q202.5 133.3 202.1 133.9Q201.7 134.5 200.9 134.8Q200.1 135.2 199.1 135.2ZM206.0 135L204.6 135L204.6 126.3L206.0 126.3L206.0 135ZM205.3 124.8L205.3 124.8Q204.9 124.8 204.6 124.6Q204.3 124.3 204.3 123.9L204.3 123.9Q204.3 123.5 204.6 123.2Q204.9 123.0 205.3 123.0L205.3 123.0Q205.7 123.0 206.0 123.2Q206.3 123.5 206.3 123.9L206.3 123.9Q206.3 124.3 206.0 124.6Q205.7 124.8 205.3 124.8ZM212.0 138.5L212.0 138.5Q211 138.5 210.3 138.2Q209.6 138.0 209.1 137.6Q208.6 137.1 208.4 136.7L208.4 136.7L209.5 135.9Q209.7 136.2 210.0 136.5Q210.3 136.8 210.7 137.0Q211.2 137.2 212.0 137.2L212.0 137.2Q213.0 137.2 213.7 136.7Q214.4 136.2 214.4 135.1L214.4 135.1L214.4 133.4L214.2 133.4Q214.1 133.6 213.8 134.0Q213.5 134.3 213.0 134.6Q212.5 134.9 211.7 134.9L211.7 134.9Q210.6 134.9 209.8 134.4Q209.0 133.9 208.5 132.9Q208.0 132.0 208.0 130.6L208.0 130.6Q208.0 129.2 208.5 128.2Q209.0 127.3 209.8 126.7Q210.6 126.2 211.7 126.2L211.7 126.2Q212.6 126.2 213.1 126.4Q213.6 126.7 213.9 127.1Q214.1 127.4 214.3 127.7L214.3 127.7L214.4 127.7L214.4 126.3L215.8 126.3L215.8 135.2Q215.8 136.4 215.3 137.1Q214.8 137.8 213.9 138.1Q213.0 138.5 212.0 138.5ZM211.9 133.6L211.9 133.6Q212.7 133.6 213.3 133.2Q213.8 132.9 214.1 132.2Q214.4 131.5 214.4 130.6L214.4 130.6Q214.4 129.6 214.1 128.9Q213.8 128.2 213.3 127.8Q212.7 127.4 211.9 127.4L211.9 127.4Q211.1 127.4 210.5 127.8Q210.0 128.3 209.7 129.0Q209.4 129.7 209.4 130.6L209.4 130.6Q209.4 131.5 209.7 132.1Q210 132.8 210.6 133.2Q211.1 133.6 211.9 133.6ZM219.6 129.8L219.6 129.8L219.6 135L218.2 135L218.2 126.3L219.6 126.3L219.6 127.9Q220.0 127.1 220.5 126.7L220.5 126.7Q221.3 126.2 222.3 126.2L222.3 126.2Q223.2 126.2 223.8 126.5Q224.5 126.9 224.9 127.6Q225.2 128.3 225.2 129.5L225.2 129.5L225.2 135L223.8 135L223.8 129.6Q223.8 128.6 223.3 128.0Q222.8 127.4 221.9 127.4L221.9 127.4Q221.2 127.4 220.7 127.7Q220.2 128.0 219.9 128.5Q219.6 129.0 219.6 129.8ZM229.1 135L227.7 135L227.7 126.3L229.1 126.3L229.1 135ZM228.4 124.8L228.4 124.8Q228.0 124.8 227.7 124.6Q227.4 124.3 227.4 123.9L227.4 123.9Q227.4 123.5 227.7 123.2Q228.0 123.0 228.4 123.0L228.4 123.0Q228.8 123.0 229.1 123.2Q229.4 123.5 229.4 123.9L229.4 123.9Q229.4 124.3 229.1 124.6Q228.8 124.8 228.4 124.8ZM233.0 129.8L233.0 129.8L233.0 135L231.6 135L231.6 126.3L232.9 126.3L232.9 127.9Q233.3 127.1 233.9 126.7L233.9 126.7Q234.6 126.2 235.6 126.2L235.6 126.2Q236.5 126.2 237.1 126.5Q237.8 126.9 238.2 127.6Q238.6 128.3 238.6 129.5L238.6 129.5L238.6 135L237.1 135L237.1 129.6Q237.1 128.6 236.6 128.0Q236.1 127.4 235.2 127.4L235.2 127.4Q234.6 127.4 234.1 127.7Q233.6 128.0 233.3 128.5Q233.0 129.0 233.0 129.8ZM244.6 138.5L244.6 138.5Q243.6 138.5 242.9 138.2Q242.2 138.0 241.7 137.6Q241.2 137.1 241.0 136.7L241.0 136.7L242.1 135.9Q242.3 136.2 242.6 136.5Q242.9 136.8 243.3 137.0Q243.8 137.2 244.6 137.2L244.6 137.2Q245.6 137.2 246.3 136.7Q247.0 136.2 247.0 135.1L247.0 135.1L247.0 133.4L246.8 133.4Q246.7 133.6 246.4 134.0Q246.1 134.3 245.6 134.6Q245.1 134.9 244.3 134.9L244.3 134.9Q243.2 134.9 242.4 134.4Q241.6 133.9 241.1 132.9Q240.6 132.0 240.6 130.6L240.6 130.6Q240.6 129.2 241.1 128.2Q241.6 127.3 242.4 126.7Q243.2 126.2 244.3 126.2L244.3 126.2Q245.2 126.2 245.7 126.4Q246.2 126.7 246.4 127.1Q246.7 127.4 246.9 127.7L246.9 127.7L247 127.7L247 126.3L248.4 126.3L248.4 135.2Q248.4 136.4 247.9 137.1Q247.4 137.8 246.5 138.1Q245.6 138.5 244.6 138.5ZM244.5 133.6L244.5 133.6Q245.3 133.6 245.9 133.2Q246.4 132.9 246.7 132.2Q247.0 131.5 247.0 130.6L247.0 130.6Q247.0 129.6 246.7 128.9Q246.4 128.2 245.9 127.8Q245.3 127.4 244.5 127.4L244.5 127.4Q243.7 127.4 243.1 127.8Q242.6 128.3 242.3 129.0Q242.0 129.7 242.0 130.6L242.0 130.6Q242.0 131.5 242.3 132.1Q242.6 132.8 243.1 133.2Q243.7 133.6 244.5 133.6Z M258.3 135.1L258.3 135.1Q257.4 135.1 256.7 134.7Q256.1 134.4 255.7 133.6Q255.3 132.9 255.3 131.8L255.3 131.8L255.3 126.3L256.7 126.3L256.7 131.7Q256.7 132.7 257.3 133.3Q257.8 133.8 258.7 133.8L258.7 133.8Q259.3 133.8 259.8 133.6Q260.3 133.3 260.6 132.8Q260.9 132.2 260.9 131.5L260.9 131.5L260.9 126.3L262.3 126.3L262.3 135L261.0 135L261.0 133.4Q260.6 134.2 260.0 134.6L260.0 134.6Q259.3 135.1 258.3 135.1ZM267.8 135.2L267.8 135.2Q266.9 135.2 266.2 134.9Q265.5 134.7 265.0 134.1Q264.6 133.6 264.4 132.9L264.4 132.9L265.7 132.6Q265.9 133.3 266.4 133.6Q267.0 134.0 267.8 134.0L267.8 134.0Q268.7 134.0 269.2 133.6Q269.8 133.2 269.8 132.6L269.8 132.6Q269.8 132.2 269.4 131.9Q269.1 131.6 268.5 131.4L268.5 131.4L267.0 131.1Q265.8 130.8 265.3 130.2Q264.7 129.6 264.7 128.7L264.7 128.7Q264.7 128.0 265.1 127.4Q265.5 126.8 266.2 126.5Q267.0 126.2 267.9 126.2L267.9 126.2Q268.8 126.2 269.4 126.4Q270.1 126.7 270.5 127.2Q270.9 127.6 271.0 128.3L271.0 128.3L269.8 128.6Q269.6 128.1 269.2 127.7Q268.8 127.4 267.9 127.4L267.9 127.4Q267.1 127.4 266.6 127.7Q266.1 128.1 266.1 128.6L266.1 128.6Q266.1 129.1 266.4 129.4Q266.8 129.7 267.6 129.9L267.6 129.9L268.9 130.2Q270.1 130.5 270.6 131.1Q271.2 131.6 271.2 132.5L271.2 132.5Q271.2 133.3 270.8 133.9Q270.3 134.5 269.6 134.8Q268.8 135.2 267.8 135.2ZM276.9 135.2L276.9 135.2Q275.6 135.2 274.7 134.6Q273.8 134.1 273.3 133.1Q272.8 132.0 272.8 130.7Q272.8 129.4 273.3 128.3Q273.8 127.3 274.7 126.7Q275.6 126.2 276.8 126.2L276.8 126.2Q277.4 126.2 278.1 126.4Q278.8 126.6 279.3 127.1Q279.9 127.6 280.2 128.5Q280.6 129.3 280.6 130.5L280.6 130.5L280.6 131.1L274.2 131.1Q274.3 132.0 274.6 132.6L274.6 132.6Q274.9 133.2 275.5 133.6Q276.1 133.9 276.9 133.9L276.9 133.9Q277.4 133.9 277.9 133.8Q278.3 133.6 278.6 133.3Q278.9 133.0 279.1 132.6L279.1 132.6L280.4 133.0Q280.2 133.6 279.7 134.1Q279.2 134.6 278.5 134.9Q277.8 135.2 276.9 135.2ZM274.3 129.9L274.3 129.9L279.1 129.9Q279.1 129.3 278.9 128.8L278.9 128.8Q278.6 128.2 278.1 127.8Q277.5 127.4 276.8 127.4Q276.0 127.4 275.4 127.8Q274.8 128.2 274.5 128.8L274.5 128.8Q274.3 129.3 274.3 129.9ZM284.0 135L282.6 135L282.6 126.3L283.9 126.3L283.9 127.6L284.0 127.6Q284.3 126.9 284.9 126.5Q285.5 126.1 286.3 126.1L286.3 126.1Q286.4 126.1 286.7 126.1Q286.9 126.2 287 126.2L287 126.2L287 127.6Q286.9 127.6 286.7 127.5Q286.4 127.5 286.2 127.5L286.2 127.5Q285.5 127.5 285.0 127.8Q284.5 128.0 284.3 128.5Q284.0 128.9 284.0 129.5L284.0 129.5L284.0 135ZM288.5 129.4L293.6 129.4L293.6 130.7L288.5 130.7L288.5 129.4ZM299.5 135.2L299.5 135.2Q298.3 135.2 297.4 134.6Q296.5 134.1 296.0 133.0Q295.5 132.0 295.5 130.7L295.5 130.7Q295.5 129.3 296.0 128.3Q296.5 127.3 297.4 126.7Q298.3 126.2 299.5 126.2L299.5 126.2Q300.1 126.2 300.7 126.3Q301.3 126.5 301.7 126.8Q302.2 127.1 302.5 127.6Q302.9 128 303.0 128.6L303.0 128.6L301.7 129.0Q301.6 128.6 301.4 128.3Q301.2 128.1 300.9 127.8Q300.7 127.6 300.3 127.5Q299.9 127.4 299.5 127.4L299.5 127.4Q298.6 127.4 298.1 127.9Q297.5 128.3 297.2 129.1Q297.0 129.8 297.0 130.7L297.0 130.7Q297.0 131.5 297.2 132.3Q297.5 133.0 298.1 133.5Q298.6 133.9 299.5 133.9L299.5 133.9Q299.9 133.9 300.3 133.8Q300.7 133.7 301.0 133.5Q301.3 133.3 301.4 133.0Q301.6 132.7 301.7 132.3L301.7 132.3L303.1 132.7Q302.9 133.3 302.6 133.7Q302.2 134.2 301.8 134.5Q301.3 134.9 300.7 135.0Q300.1 135.2 299.5 135.2ZM308.8 135.2L308.8 135.2Q307.5 135.2 306.6 134.6Q305.7 134.1 305.2 133.1Q304.7 132.0 304.7 130.7Q304.7 129.4 305.2 128.3Q305.6 127.3 306.5 126.7Q307.4 126.2 308.6 126.2L308.6 126.2Q309.3 126.2 310.0 126.4Q310.6 126.6 311.2 127.1Q311.8 127.6 312.1 128.5Q312.4 129.3 312.4 130.5L312.4 130.5L312.4 131.1L306.1 131.1Q306.1 132.0 306.4 132.6L306.4 132.6Q306.8 133.2 307.4 133.6Q308.0 133.9 308.8 133.9L308.8 133.9Q309.3 133.9 309.7 133.8Q310.1 133.6 310.4 133.3Q310.7 133.0 310.9 132.6L310.9 132.6L312.3 133.0Q312.1 133.6 311.6 134.1Q311.1 134.6 310.4 134.9Q309.7 135.2 308.8 135.2ZM306.1 129.9L306.1 129.9L311.0 129.9Q310.9 129.3 310.7 128.8L310.7 128.8Q310.5 128.2 309.9 127.8Q309.4 127.4 308.6 127.4Q307.8 127.4 307.3 127.8Q306.7 128.2 306.4 128.8L306.4 128.8Q306.1 129.3 306.1 129.9ZM315.8 129.8L315.8 129.8L315.8 135L314.4 135L314.4 126.3L315.8 126.3L315.8 127.9Q316.1 127.1 316.7 126.7L316.7 126.7Q317.5 126.2 318.5 126.2L318.5 126.2Q319.3 126.2 320 126.5Q320.7 126.9 321.0 127.6Q321.4 128.3 321.4 129.5L321.4 129.5L321.4 135L320 135L320 129.6Q320 128.6 319.5 128.0Q318.9 127.4 318.0 127.4L318.0 127.4Q317.4 127.4 316.9 127.7Q316.4 128.0 316.1 128.5Q315.8 129.0 315.8 129.8ZM325.5 126.3L327.3 126.3L327.3 127.5L325.5 127.5L325.5 132.7Q325.5 133.3 325.8 133.6Q326.0 133.9 326.5 133.9L326.5 133.9Q326.7 133.9 326.9 133.8Q327.1 133.8 327.3 133.8L327.3 133.8L327.6 135.0Q327.3 135.0 327.1 135.1Q326.8 135.1 326.5 135.1L326.5 135.1Q325.4 135.1 324.7 134.5Q324.1 133.9 324.1 132.8L324.1 132.8L324.1 127.5L322.8 127.5L322.8 126.3L324.1 126.3L324.1 124.2L325.5 124.2L325.5 126.3ZM332.8 135.2L332.8 135.2Q331.5 135.2 330.6 134.6Q329.7 134.1 329.2 133.1Q328.7 132.0 328.7 130.7Q328.7 129.4 329.2 128.3Q329.7 127.3 330.5 126.7Q331.4 126.2 332.6 126.2L332.6 126.2Q333.3 126.2 334.0 126.4Q334.7 126.6 335.2 127.1Q335.8 127.6 336.1 128.5Q336.4 129.3 336.4 130.5L336.4 130.5L336.4 131.1L330.1 131.1Q330.1 132.0 330.4 132.6L330.4 132.6Q330.8 133.2 331.4 133.6Q332.0 133.9 332.8 133.9L332.8 133.9Q333.3 133.9 333.7 133.8Q334.1 133.6 334.5 133.3Q334.8 133.0 334.9 132.6L334.9 132.6L336.3 133.0Q336.1 133.6 335.6 134.1Q335.1 134.6 334.4 134.9Q333.7 135.2 332.8 135.2ZM330.1 129.9L330.1 129.9L335.0 129.9Q334.9 129.3 334.7 128.8L334.7 128.8Q334.5 128.2 333.9 127.8Q333.4 127.4 332.6 127.4Q331.8 127.4 331.3 127.8Q330.7 128.2 330.4 128.8L330.4 128.8Q330.2 129.3 330.1 129.9ZM339.8 135L338.4 135L338.4 126.3L339.8 126.3L339.8 127.6L339.9 127.6Q340.1 126.9 340.8 126.5Q341.4 126.1 342.2 126.1L342.2 126.1Q342.3 126.1 342.5 126.1Q342.7 126.2 342.9 126.2L342.9 126.2L342.9 127.6Q342.8 127.6 342.6 127.5Q342.3 127.5 342.0 127.5L342.0 127.5Q341.4 127.5 340.9 127.8Q340.4 128.0 340.1 128.5Q339.8 128.9 339.8 129.5L339.8 129.5L339.8 135ZM348.1 135.2L348.1 135.2Q346.9 135.2 345.9 134.6Q345.0 134.1 344.5 133.1Q344.0 132.0 344.0 130.7Q344.0 129.4 344.5 128.3Q345.0 127.3 345.9 126.7Q346.8 126.2 348.0 126.2L348.0 126.2Q348.7 126.2 349.3 126.4Q350.0 126.6 350.6 127.1Q351.1 127.6 351.4 128.5Q351.8 129.3 351.8 130.5L351.8 130.5L351.8 131.1L345.5 131.1Q345.5 132.0 345.8 132.6L345.8 132.6Q346.1 133.2 346.7 133.6Q347.3 133.9 348.1 133.9L348.1 133.9Q348.7 133.9 349.1 133.8Q349.5 133.6 349.8 133.3Q350.1 133.0 350.3 132.6L350.3 132.6L351.6 133.0Q351.4 133.6 350.9 134.1Q350.5 134.6 349.7 134.9Q349.0 135.2 348.1 135.2ZM345.5 129.9L345.5 129.9L350.3 129.9Q350.3 129.3 350.1 128.8L350.1 128.8Q349.8 128.2 349.3 127.8Q348.8 127.4 348.0 127.4Q347.2 127.4 346.6 127.8Q346.1 128.2 345.8 128.8L345.8 128.8Q345.5 129.3 345.5 129.9ZM357.1 135.2L357.1 135.2Q356.0 135.2 355.1 134.6Q354.3 134.1 353.8 133.1Q353.4 132.0 353.4 130.7L353.4 130.7Q353.4 129.3 353.8 128.3Q354.3 127.3 355.1 126.7Q356.0 126.2 357.1 126.2L357.1 126.2Q357.9 126.2 358.4 126.4Q358.9 126.7 359.2 127.1Q359.5 127.4 359.6 127.7L359.6 127.7L359.7 127.7L359.7 123.4L361.1 123.4L361.1 135L359.8 135L359.8 133.6L359.6 133.6Q359.5 133.9 359.2 134.3Q358.9 134.6 358.4 134.9Q357.9 135.2 357.1 135.2ZM357.3 133.9L357.3 133.9Q358.1 133.9 358.6 133.5Q359.2 133.1 359.4 132.4Q359.7 131.6 359.7 130.6L359.7 130.6Q359.7 129.7 359.4 128.9Q359.2 128.2 358.6 127.8Q358.1 127.4 357.3 127.4L357.3 127.4Q356.4 127.4 355.9 127.8Q355.3 128.3 355.1 129.0Q354.8 129.7 354.8 130.6L354.8 130.6Q354.8 131.6 355.1 132.3Q355.4 133.0 355.9 133.5Q356.5 133.9 357.3 133.9Z M369.5 138.3L368.1 138.3L368.1 126.3L369.4 126.3L369.4 127.7L369.6 127.7Q369.8 127.4 370.0 127.1Q370.3 126.7 370.8 126.4Q371.3 126.2 372.1 126.2L372.1 126.2Q373.2 126.2 374.1 126.7Q374.9 127.3 375.4 128.3Q375.8 129.3 375.8 130.7L375.8 130.7Q375.8 132.0 375.4 133.1Q374.9 134.1 374.1 134.6Q373.2 135.2 372.1 135.2L372.1 135.2Q371.3 135.2 370.8 134.9Q370.3 134.6 370.0 134.3Q369.8 133.9 369.6 133.6L369.6 133.6L369.5 133.6L369.5 138.3ZM371.9 133.9L371.9 133.9Q372.8 133.9 373.3 133.5Q373.9 133.0 374.1 132.3Q374.4 131.6 374.4 130.6L374.4 130.6Q374.4 129.7 374.1 129.0Q373.9 128.3 373.3 127.8Q372.8 127.4 371.9 127.4L371.9 127.4Q371.1 127.4 370.6 127.8Q370.0 128.2 369.8 128.9Q369.5 129.7 369.5 130.6L369.5 130.6Q369.5 131.6 369.8 132.4Q370.0 133.1 370.6 133.5Q371.1 133.9 371.9 133.9ZM379.3 135L377.9 135L377.9 126.3L379.2 126.3L379.2 127.6L379.3 127.6Q379.6 126.9 380.2 126.5Q380.8 126.1 381.6 126.1L381.6 126.1Q381.8 126.1 382.0 126.1Q382.2 126.2 382.3 126.2L382.3 126.2L382.3 127.6Q382.3 127.6 382 127.5Q381.8 127.5 381.5 127.5L381.5 127.5Q380.8 127.5 380.3 127.8Q379.9 128.0 379.6 128.5Q379.3 128.9 379.3 129.5L379.3 129.5L379.3 135ZM387.5 135.2L387.5 135.2Q386.3 135.2 385.4 134.6Q384.5 134.1 384.0 133.0Q383.5 132.0 383.5 130.7L383.5 130.7Q383.5 129.3 384.0 128.3Q384.5 127.3 385.4 126.7Q386.3 126.2 387.5 126.2L387.5 126.2Q388.7 126.2 389.6 126.7Q390.5 127.3 391.0 128.3Q391.5 129.3 391.5 130.7L391.5 130.7Q391.5 132.0 391.0 133.0Q390.5 134.1 389.6 134.6Q388.7 135.2 387.5 135.2ZM387.5 133.9L387.5 133.9Q388.3 133.9 388.9 133.5Q389.5 133.0 389.8 132.3Q390.0 131.5 390.0 130.7L390.0 130.7Q390.0 129.8 389.8 129.1Q389.5 128.3 388.9 127.9Q388.3 127.4 387.5 127.4L387.5 127.4Q386.6 127.4 386.0 127.9Q385.5 128.3 385.2 129.1Q384.9 129.8 384.9 130.7L384.9 130.7Q384.9 131.5 385.2 132.3Q385.5 133.0 386.0 133.5Q386.6 133.9 387.5 133.9ZM396.8 135.2L396.8 135.2Q395.7 135.2 394.9 134.6Q394.0 134.1 393.5 133.1Q393.1 132.0 393.1 130.7L393.1 130.7Q393.1 129.3 393.6 128.3Q394.0 127.3 394.9 126.7Q395.7 126.2 396.8 126.2L396.8 126.2Q397.6 126.2 398.1 126.4Q398.6 126.7 398.9 127.1Q399.2 127.4 399.3 127.7L399.3 127.7L399.4 127.7L399.4 123.4L400.8 123.4L400.8 135L399.5 135L399.5 133.6L399.3 133.6Q399.2 133.9 398.9 134.3Q398.6 134.6 398.1 134.9Q397.6 135.2 396.8 135.2ZM397.0 133.9L397.0 133.9Q397.8 133.9 398.3 133.5Q398.9 133.1 399.2 132.4Q399.4 131.6 399.4 130.6L399.4 130.6Q399.4 129.7 399.2 128.9Q398.9 128.2 398.3 127.8Q397.8 127.4 397.0 127.4L397.0 127.4Q396.2 127.4 395.6 127.8Q395.1 128.3 394.8 129.0Q394.5 129.7 394.5 130.6L394.5 130.6Q394.5 131.6 394.8 132.3Q395.1 133.0 395.6 133.5Q396.2 133.9 397.0 133.9ZM406.3 135.1L406.3 135.1Q405.4 135.1 404.7 134.7Q404.0 134.4 403.7 133.6Q403.3 132.9 403.3 131.8L403.3 131.8L403.3 126.3L404.7 126.3L404.7 131.7Q404.7 132.7 405.2 133.3Q405.8 133.8 406.7 133.8L406.7 133.8Q407.3 133.8 407.8 133.6Q408.3 133.3 408.6 132.8Q408.9 132.2 408.9 131.5L408.9 131.5L408.9 126.3L410.3 126.3L410.3 135L408.9 135L408.9 133.4Q408.6 134.2 408.0 134.6L408.0 134.6Q407.2 135.1 406.3 135.1ZM416.3 135.2L416.3 135.2Q415.1 135.2 414.2 134.6Q413.3 134.1 412.8 133.0Q412.3 132.0 412.3 130.7L412.3 130.7Q412.3 129.3 412.8 128.3Q413.3 127.3 414.2 126.7Q415.1 126.2 416.3 126.2L416.3 126.2Q416.9 126.2 417.5 126.3Q418.1 126.5 418.5 126.8Q419 127.1 419.3 127.6Q419.7 128 419.9 128.6L419.9 128.6L418.5 129.0Q418.4 128.6 418.2 128.3Q418.0 128.1 417.7 127.8Q417.5 127.6 417.1 127.5Q416.7 127.4 416.3 127.4L416.3 127.4Q415.4 127.4 414.9 127.9Q414.3 128.3 414.0 129.1Q413.8 129.8 413.8 130.7L413.8 130.7Q413.8 131.5 414.0 132.3Q414.3 133.0 414.9 133.5Q415.4 133.9 416.3 133.9L416.3 133.9Q416.8 133.9 417.1 133.8Q417.5 133.7 417.8 133.5Q418.1 133.3 418.3 133.0Q418.4 132.7 418.5 132.3L418.5 132.3L419.9 132.7Q419.7 133.3 419.4 133.7Q419.0 134.2 418.6 134.5Q418.1 134.9 417.5 135.0Q417.0 135.2 416.3 135.2ZM423.5 126.3L425.3 126.3L425.3 127.5L423.5 127.5L423.5 132.7Q423.5 133.3 423.8 133.6Q424.0 133.9 424.6 133.9L424.6 133.9Q424.7 133.9 424.9 133.8Q425.1 133.8 425.3 133.8L425.3 133.8L425.6 135.0Q425.4 135.0 425.1 135.1Q424.8 135.1 424.5 135.1L424.5 135.1Q423.4 135.1 422.8 134.5Q422.1 133.9 422.1 132.8L422.1 132.8L422.1 127.5L420.8 127.5L420.8 126.3L422.1 126.3L422.1 124.2L423.5 124.2L423.5 126.3ZM430.1 135.2L430.1 135.2Q429.2 135.2 428.5 134.9Q427.8 134.7 427.4 134.1Q426.9 133.6 426.7 132.9L426.7 132.9L428.1 132.6Q428.3 133.3 428.8 133.6Q429.3 134.0 430.1 134.0L430.1 134.0Q431 134.0 431.5 133.6Q432.1 133.2 432.1 132.6L432.1 132.6Q432.1 132.2 431.8 131.9Q431.5 131.6 430.8 131.4L430.8 131.4L429.4 131.1Q428.2 130.8 427.6 130.2Q427.0 129.6 427.0 128.7L427.0 128.7Q427.0 128.0 427.4 127.4Q427.9 126.8 428.6 126.5Q429.3 126.2 430.2 126.2L430.2 126.2Q431.1 126.2 431.8 126.4Q432.4 126.7 432.8 127.2Q433.2 127.6 433.4 128.3L433.4 128.3L432.1 128.6Q431.9 128.1 431.5 127.7Q431.1 127.4 430.3 127.4L430.3 127.4Q429.5 127.4 428.9 127.7Q428.4 128.1 428.4 128.6L428.4 128.6Q428.4 129.1 428.8 129.4Q429.1 129.7 429.9 129.9L429.9 129.9L431.2 130.2Q432.4 130.5 433.0 131.1Q433.5 131.6 433.5 132.5L433.5 132.5Q433.5 133.3 433.1 133.9Q432.7 134.5 431.9 134.8Q431.1 135.2 430.1 135.2Z M438.8 129.4L454.8 129.4L454.8 130.7L438.8 130.7L438.8 129.4Z M463.0 135.2L463.0 135.2Q462.2 135.2 461.5 134.9Q460.8 134.6 460.4 134.0Q460.0 133.4 460.0 132.5L460.0 132.5Q460.0 131.8 460.3 131.3Q460.6 130.8 461.1 130.6Q461.6 130.3 462.2 130.2Q462.8 130.0 463.4 129.9L463.4 129.9Q464.2 129.8 464.7 129.8Q465.2 129.7 465.4 129.6Q465.7 129.5 465.7 129.1L465.7 129.1L465.7 129.1Q465.7 128.6 465.5 128.2Q465.3 127.8 464.9 127.6Q464.5 127.4 463.9 127.4L463.9 127.4Q463.2 127.4 462.8 127.6Q462.3 127.8 462.1 128.1Q461.8 128.4 461.6 128.7L461.6 128.7L460.3 128.2Q460.6 127.4 461.2 127.0Q461.8 126.5 462.5 126.3Q463.1 126.2 463.8 126.2L463.8 126.2Q464.3 126.2 464.8 126.3Q465.4 126.4 465.9 126.7Q466.4 127.0 466.8 127.6Q467.1 128.2 467.1 129.2L467.1 129.2L467.1 135L465.7 135L465.7 133.8L465.6 133.8Q465.5 134.1 465.1 134.4Q464.8 134.8 464.3 135.0Q463.8 135.2 463.0 135.2ZM463.3 134.0L463.3 134.0Q464.0 134.0 464.6 133.7Q465.1 133.4 465.4 132.9Q465.7 132.4 465.7 131.8L465.7 131.8L465.7 130.6Q465.6 130.7 465.3 130.8Q465.0 130.9 464.7 131.0Q464.3 131.0 463.9 131.1Q463.6 131.1 463.4 131.1L463.4 131.1Q462.9 131.2 462.4 131.3Q462.0 131.5 461.7 131.8Q461.5 132.1 461.5 132.6L461.5 132.6Q461.5 133.0 461.7 133.3Q461.9 133.6 462.3 133.8Q462.7 134.0 463.3 134.0ZM471.0 129.8L471.0 129.8L471.0 135L469.6 135L469.6 126.3L470.9 126.3L470.9 127.9Q471.3 127.1 471.9 126.7L471.9 126.7Q472.6 126.2 473.6 126.2L473.6 126.2Q474.5 126.2 475.1 126.5Q475.8 126.9 476.2 127.6Q476.5 128.3 476.5 129.5L476.5 129.5L476.5 135L475.1 135L475.1 129.6Q475.1 128.6 474.6 128.0Q474.1 127.4 473.2 127.4L473.2 127.4Q472.5 127.4 472.0 127.7Q471.5 128.0 471.3 128.5Q471.0 129.0 471.0 129.8ZM482.3 135.2L482.3 135.2Q481.2 135.2 480.4 134.6Q479.5 134.1 479.1 133.1Q478.6 132.0 478.6 130.7L478.6 130.7Q478.6 129.3 479.1 128.3Q479.5 127.3 480.4 126.7Q481.2 126.2 482.3 126.2L482.3 126.2Q483.1 126.2 483.6 126.4Q484.1 126.7 484.4 127.1Q484.7 127.4 484.8 127.7L484.8 127.7L484.9 127.7L484.9 123.4L486.3 123.4L486.3 135L485.0 135L485.0 133.6L484.8 133.6Q484.7 133.9 484.4 134.3Q484.1 134.6 483.6 134.9Q483.1 135.2 482.3 135.2ZM482.5 133.9L482.5 133.9Q483.3 133.9 483.8 133.5Q484.4 133.1 484.7 132.4Q485.0 131.6 485.0 130.6L485.0 130.6Q485.0 129.7 484.7 128.9Q484.4 128.2 483.9 127.8Q483.3 127.4 482.5 127.4L482.5 127.4Q481.7 127.4 481.1 127.8Q480.6 128.3 480.3 129.0Q480.0 129.7 480.0 130.6L480.0 130.6Q480.0 131.6 480.3 132.3Q480.6 133.0 481.1 133.5Q481.7 133.9 482.5 133.9Z M497.4 135.2L497.4 135.2Q496.5 135.2 496.0 134.9Q495.5 134.6 495.3 134.3Q495.0 133.9 494.8 133.6L494.8 133.6L494.7 133.6L494.7 135L493.3 135L493.3 123.4L494.7 123.4L494.7 127.7L494.8 127.7Q495.0 127.4 495.2 127.1Q495.5 126.7 496.0 126.4Q496.5 126.2 497.4 126.2L497.4 126.2Q498.5 126.2 499.3 126.7Q500.1 127.3 500.6 128.3Q501.1 129.3 501.1 130.7L501.1 130.7Q501.1 132.0 500.6 133.1Q500.1 134.1 499.3 134.6Q498.5 135.2 497.4 135.2ZM497.2 133.9L497.2 133.9Q498.0 133.9 498.5 133.5Q499.1 133.0 499.4 132.3Q499.6 131.6 499.6 130.6L499.6 130.6Q499.6 129.7 499.4 129.0Q499.1 128.3 498.5 127.8Q498.0 127.4 497.2 127.4L497.2 127.4Q496.4 127.4 495.8 127.8Q495.3 128.2 495.0 128.9Q494.7 129.7 494.7 130.6L494.7 130.6Q494.7 131.6 495.0 132.4Q495.3 133.1 495.8 133.5Q496.4 133.9 497.2 133.9ZM506.1 135.1L506.1 135.1Q505.2 135.1 504.5 134.7Q503.9 134.4 503.5 133.6Q503.1 132.9 503.1 131.8L503.1 131.8L503.1 126.3L504.5 126.3L504.5 131.7Q504.5 132.7 505.0 133.3Q505.6 133.8 506.5 133.8L506.5 133.8Q507.1 133.8 507.6 133.6Q508.1 133.3 508.4 132.8Q508.7 132.2 508.7 131.5L508.7 131.5L508.7 126.3L510.1 126.3L510.1 135L508.7 135L508.7 133.4Q508.4 134.2 507.8 134.6L507.8 134.6Q507.0 135.1 506.1 135.1ZM514.0 135L512.6 135L512.6 126.3L514.0 126.3L514.0 135ZM513.3 124.8L513.3 124.8Q512.9 124.8 512.6 124.6Q512.3 124.3 512.3 123.9L512.3 123.9Q512.3 123.5 512.6 123.2Q512.9 123.0 513.3 123.0L513.3 123.0Q513.7 123.0 514.0 123.2Q514.3 123.5 514.3 123.9L514.3 123.9Q514.3 124.3 514.0 124.6Q513.7 124.8 513.3 124.8ZM516.4 123.4L517.9 123.4L517.9 135L516.4 135L516.4 123.4ZM523.6 135.2L523.6 135.2Q522.5 135.2 521.7 134.6Q520.8 134.1 520.4 133.1Q519.9 132.0 519.9 130.7L519.9 130.7Q519.9 129.3 520.4 128.3Q520.8 127.3 521.7 126.7Q522.5 126.2 523.6 126.2L523.6 126.2Q524.5 126.2 525.0 126.4Q525.5 126.7 525.7 127.1Q526.0 127.4 526.1 127.7L526.1 127.7L526.2 127.7L526.2 123.4L527.6 123.4L527.6 135L526.3 135L526.3 133.6L526.1 133.6Q526.0 133.9 525.7 134.3Q525.4 134.6 524.9 134.9Q524.4 135.2 523.6 135.2ZM523.8 133.9L523.8 133.9Q524.6 133.9 525.1 133.5Q525.7 133.1 526.0 132.4Q526.3 131.6 526.3 130.6L526.3 130.6Q526.3 129.7 526.0 128.9Q525.7 128.2 525.2 127.8Q524.6 127.4 523.8 127.4L523.8 127.4Q523.0 127.4 522.4 127.8Q521.9 128.3 521.6 129.0Q521.3 129.7 521.3 130.6L521.3 130.6Q521.3 131.6 521.6 132.3Q521.9 133.0 522.4 133.5Q523.0 133.9 523.8 133.9ZM531.5 135L530.1 135L530.1 126.3L531.5 126.3L531.5 135ZM530.8 124.8L530.8 124.8Q530.4 124.8 530.1 124.6Q529.9 124.3 529.9 123.9L529.9 123.9Q529.9 123.5 530.1 123.2Q530.4 123.0 530.8 123.0L530.8 123.0Q531.2 123.0 531.5 123.2Q531.8 123.5 531.8 123.9L531.8 123.9Q531.8 124.3 531.5 124.6Q531.2 124.8 530.8 124.8ZM535.4 129.8L535.4 129.8L535.4 135L534.0 135L534.0 126.3L535.3 126.3L535.4 127.9Q535.7 127.1 536.3 126.7L536.3 126.7Q537.0 126.2 538.0 126.2L538.0 126.2Q538.9 126.2 539.6 126.5Q540.2 126.9 540.6 127.6Q541.0 128.3 541.0 129.5L541.0 129.5L541.0 135L539.6 135L539.6 129.6Q539.6 128.6 539.0 128.0Q538.5 127.4 537.6 127.4L537.6 127.4Q537.0 127.4 536.5 127.7Q536.0 128.0 535.7 128.5Q535.4 129.0 535.4 129.8ZM547.0 138.5L547.0 138.5Q546.0 138.5 545.3 138.2Q544.6 138.0 544.1 137.6Q543.7 137.1 543.4 136.7L543.4 136.7L544.5 135.9Q544.7 136.2 545.0 136.5Q545.3 136.8 545.7 137.0Q546.2 137.2 547.0 137.2L547.0 137.2Q548.0 137.2 548.7 136.7Q549.4 136.2 549.4 135.1L549.4 135.1L549.4 133.4L549.3 133.4Q549.1 133.6 548.8 134.0Q548.6 134.3 548.1 134.6Q547.6 134.9 546.7 134.9L546.7 134.9Q545.7 134.9 544.8 134.4Q544.0 133.9 543.5 132.9Q543.0 132.0 543.0 130.6L543.0 130.6Q543.0 129.2 543.5 128.2Q544.0 127.3 544.8 126.7Q545.7 126.2 546.7 126.2L546.7 126.2Q547.6 126.2 548.1 126.4Q548.6 126.7 548.9 127.1Q549.1 127.4 549.3 127.7L549.3 127.7L549.4 127.7L549.4 126.3L550.8 126.3L550.8 135.2Q550.8 136.4 550.3 137.1Q549.8 137.8 548.9 138.1Q548.0 138.5 547.0 138.5ZM546.9 133.6L546.9 133.6Q547.7 133.6 548.3 133.2Q548.8 132.9 549.1 132.2Q549.4 131.5 549.4 130.6L549.4 130.6Q549.4 129.6 549.1 128.9Q548.8 128.2 548.3 127.8Q547.8 127.4 546.9 127.4L546.9 127.4Q546.1 127.4 545.6 127.8Q545.0 128.3 544.7 129.0Q544.5 129.7 544.5 130.6L544.5 130.6Q544.5 131.5 544.7 132.1Q545.0 132.8 545.6 133.2Q546.1 133.6 546.9 133.6Z M559.4 126.3L561.2 126.3L561.2 127.5L559.4 127.5L559.4 132.7Q559.4 133.3 559.6 133.6Q559.9 133.9 560.4 133.9L560.4 133.9Q560.6 133.9 560.8 133.8Q561.0 133.8 561.1 133.8L561.1 133.8L561.4 135.0Q561.2 135.0 560.9 135.1Q560.7 135.1 560.4 135.1L560.4 135.1Q559.3 135.1 558.6 134.5Q558.0 133.9 558.0 132.8L558.0 132.8L558.0 127.5L556.7 127.5L556.7 126.3L558.0 126.3L558.0 124.2L559.4 124.2L559.4 126.3ZM564.4 129.8L564.4 129.8L564.4 135L563.0 135L563.0 123.4L564.4 123.4L564.4 127.8Q564.8 127.0 565.3 126.7L565.3 126.7Q566.0 126.2 567.0 126.2L567.0 126.2Q567.9 126.2 568.6 126.5Q569.2 126.9 569.6 127.6Q570.0 128.3 570.0 129.5L570.0 129.5L570.0 135L568.6 135L568.6 129.6Q568.6 128.6 568.0 128.0Q567.5 127.4 566.6 127.4L566.6 127.4Q566.0 127.4 565.5 127.7Q565.0 128.0 564.7 128.5Q564.4 129.0 564.4 129.8ZM576.1 135.2L576.1 135.2Q574.9 135.2 573.9 134.6Q573.0 134.1 572.5 133.1Q572.0 132.0 572.0 130.7Q572.0 129.4 572.5 128.3Q573 127.3 573.9 126.7Q574.8 126.2 576.0 126.2L576.0 126.2Q576.7 126.2 577.3 126.4Q578.0 126.6 578.6 127.1Q579.1 127.6 579.4 128.5Q579.8 129.3 579.8 130.5L579.8 130.5L579.8 131.1L573.5 131.1Q573.5 132.0 573.8 132.6L573.8 132.6Q574.1 133.2 574.7 133.6Q575.3 133.9 576.1 133.9L576.1 133.9Q576.6 133.9 577.1 133.8Q577.5 133.6 577.8 133.3Q578.1 133.0 578.3 132.6L578.3 132.6L579.6 133.0Q579.4 133.6 578.9 134.1Q578.5 134.6 577.7 134.9Q577.0 135.2 576.1 135.2ZM573.5 129.9L573.5 129.9L578.3 129.9Q578.3 129.3 578.1 128.8L578.1 128.8Q577.8 128.2 577.3 127.8Q576.8 127.4 576.0 127.4Q575.2 127.4 574.6 127.8Q574.0 128.2 573.8 128.8L573.8 128.8Q573.5 129.3 573.5 129.9Z M589.8 135.2L589.8 135.2Q588.6 135.2 587.8 134.6Q586.9 134.1 586.4 133.0Q585.9 132.0 585.9 130.7L585.9 130.7Q585.9 129.3 586.4 128.3Q586.9 127.3 587.8 126.7Q588.6 126.2 589.8 126.2L589.8 126.2Q591.0 126.2 591.9 126.7Q592.8 127.3 593.3 128.3Q593.8 129.3 593.8 130.7L593.8 130.7Q593.8 132.0 593.3 133.0Q592.8 134.1 591.9 134.6Q591.0 135.2 589.8 135.2ZM589.8 133.9L589.8 133.9Q590.7 133.9 591.3 133.5Q591.9 133.0 592.1 132.3Q592.4 131.5 592.4 130.7L592.4 130.7Q592.4 129.8 592.1 129.1Q591.9 128.3 591.3 127.9Q590.7 127.4 589.8 127.4L589.8 127.4Q589.0 127.4 588.4 127.9Q587.8 128.3 587.6 129.1Q587.3 129.8 587.3 130.7L587.3 130.7Q587.3 131.5 587.6 132.3Q587.8 133.0 588.4 133.5Q589.0 133.9 589.8 133.9ZM597.3 129.8L597.3 129.8L597.3 135L595.9 135L595.9 126.3L597.2 126.3L597.2 127.9Q597.6 127.1 598.2 126.7L598.2 126.7Q598.9 126.2 599.9 126.2L599.9 126.2Q600.8 126.2 601.5 126.5Q602.1 126.9 602.5 127.6Q602.9 128.3 602.9 129.5L602.9 129.5L602.9 135L601.5 135L601.5 129.6Q601.5 128.6 600.9 128.0Q600.4 127.4 599.5 127.4L599.5 127.4Q598.9 127.4 598.4 127.7Q597.9 128.0 597.6 128.5Q597.3 129.0 597.3 129.8ZM609 135.2L609 135.2Q607.7 135.2 606.8 134.6Q605.9 134.1 605.4 133.1Q604.9 132.0 604.9 130.7Q604.9 129.4 605.4 128.3Q605.9 127.3 606.8 126.7Q607.6 126.2 608.8 126.2L608.8 126.2Q609.5 126.2 610.2 126.4Q610.9 126.6 611.4 127.1Q612.0 127.6 612.3 128.5Q612.6 129.3 612.6 130.5L612.6 130.5L612.6 131.1L606.3 131.1Q606.4 132.0 606.7 132.6L606.7 132.6Q607 133.2 607.6 133.6Q608.2 133.9 609.0 133.9L609.0 133.9Q609.5 133.9 609.9 133.8Q610.4 133.6 610.7 133.3Q611.0 133.0 611.1 132.6L611.1 132.6L612.5 133.0Q612.3 133.6 611.8 134.1Q611.3 134.6 610.6 134.9Q609.9 135.2 609 135.2ZM606.3 129.9L606.3 129.9L611.2 129.9Q611.2 129.3 611.0 128.8L611.0 128.8Q610.7 128.2 610.2 127.8Q609.6 127.4 608.8 127.4Q608.0 127.4 607.5 127.8Q606.9 128.2 606.6 128.8L606.6 128.8Q606.4 129.3 606.3 129.9ZM617.6 135.2L617.6 135.2Q616.7 135.2 616.0 134.9Q615.3 134.7 614.9 134.1Q614.4 133.6 614.3 132.9L614.3 132.9L615.6 132.6Q615.8 133.3 616.3 133.6Q616.8 134.0 617.6 134.0L617.6 134.0Q618.5 134.0 619.1 133.6Q619.6 133.2 619.6 132.6L619.6 132.6Q619.6 132.2 619.3 131.9Q619.0 131.6 618.3 131.4L618.3 131.4L616.9 131.1Q615.7 130.8 615.1 130.2Q614.5 129.6 614.5 128.7L614.5 128.7Q614.5 128.0 615.0 127.4Q615.4 126.8 616.1 126.5Q616.8 126.2 617.8 126.2L617.8 126.2Q618.7 126.2 619.3 126.4Q619.9 126.7 620.3 127.2Q620.7 127.6 620.9 128.3L620.9 128.3L619.6 128.6Q619.5 128.1 619.0 127.7Q618.6 127.4 617.8 127.4L617.8 127.4Q617.0 127.4 616.5 127.7Q616.0 128.1 616.0 128.6L616.0 128.6Q616.0 129.1 616.3 129.4Q616.7 129.7 617.4 129.9L617.4 129.9L618.7 130.2Q619.9 130.5 620.5 131.1Q621.1 131.6 621.1 132.5L621.1 132.5Q621.1 133.3 620.6 133.9Q620.2 134.5 619.4 134.8Q618.6 135.2 617.6 135.2Z M627.8 123.4L629.3 123.4L629.3 135L627.8 135L627.8 123.4Z M639.7 135.2L639.7 135.2Q638.6 135.2 637.8 134.6Q636.9 134.1 636.4 133.1Q636.0 132.0 636.0 130.7L636.0 130.7Q636.0 129.3 636.4 128.3Q636.9 127.3 637.8 126.7Q638.6 126.2 639.7 126.2L639.7 126.2Q640.5 126.2 641.0 126.4Q641.5 126.7 641.8 127.1Q642.1 127.4 642.2 127.7L642.2 127.7L642.3 127.7L642.3 123.4L643.7 123.4L643.7 135L642.4 135L642.4 133.6L642.2 133.6Q642.1 133.9 641.8 134.3Q641.5 134.6 641.0 134.9Q640.5 135.2 639.7 135.2ZM639.9 133.9L639.9 133.9Q640.7 133.9 641.2 133.5Q641.8 133.1 642.1 132.4Q642.3 131.6 642.3 130.6L642.3 130.6Q642.3 129.7 642.1 128.9Q641.8 128.2 641.2 127.8Q640.7 127.4 639.9 127.4L639.9 127.4Q639.1 127.4 638.5 127.8Q638.0 128.3 637.7 129.0Q637.4 129.7 637.4 130.6L637.4 130.6Q637.4 131.6 637.7 132.3Q638.0 133.0 638.5 133.5Q639.1 133.9 639.9 133.9ZM649.9 135.2L649.9 135.2Q648.6 135.2 647.7 134.6Q646.8 134.1 646.3 133.1Q645.8 132.0 645.8 130.7Q645.8 129.4 646.3 128.3Q646.7 127.3 647.6 126.7Q648.5 126.2 649.7 126.2L649.7 126.2Q650.4 126.2 651.1 126.4Q651.8 126.6 652.3 127.1Q652.9 127.6 653.2 128.5Q653.5 129.3 653.5 130.5L653.5 130.5L653.5 131.1L647.2 131.1Q647.2 132.0 647.5 132.6L647.5 132.6Q647.9 133.2 648.5 133.6Q649.1 133.9 649.9 133.9L649.9 133.9Q650.4 133.9 650.8 133.8Q651.2 133.6 651.5 133.3Q651.8 133.0 652.0 132.6L652.0 132.6L653.4 133.0Q653.2 133.6 652.7 134.1Q652.2 134.6 651.5 134.9Q650.8 135.2 649.9 135.2ZM647.2 129.9L647.2 129.9L652.1 129.9Q652.0 129.3 651.8 128.8L651.8 128.8Q651.6 128.2 651.0 127.8Q650.5 127.4 649.7 127.4Q648.9 127.4 648.4 127.8Q647.8 128.2 647.5 128.8L647.5 128.8Q647.2 129.3 647.2 129.9ZM658.5 135.2L658.5 135.2Q657.6 135.2 656.9 134.9Q656.2 134.7 655.7 134.1Q655.3 133.6 655.1 132.9L655.1 132.9L656.5 132.6Q656.7 133.3 657.2 133.6Q657.7 134.0 658.5 134.0L658.5 134.0Q659.4 134.0 659.9 133.6Q660.5 133.2 660.5 132.6L660.5 132.6Q660.5 132.2 660.2 131.9Q659.8 131.6 659.2 131.4L659.2 131.4L657.7 131.1Q656.6 130.8 656.0 130.2Q655.4 129.6 655.4 128.7L655.4 128.7Q655.4 128.0 655.8 127.4Q656.2 126.8 657.0 126.5Q657.7 126.2 658.6 126.2L658.6 126.2Q659.5 126.2 660.2 126.4Q660.8 126.7 661.2 127.2Q661.6 127.6 661.8 128.3L661.8 128.3L660.5 128.6Q660.3 128.1 659.9 127.7Q659.5 127.4 658.6 127.4L658.6 127.4Q657.9 127.4 657.3 127.7Q656.8 128.1 656.8 128.6L656.8 128.6Q656.8 129.1 657.2 129.4Q657.5 129.7 658.3 129.9L658.3 129.9L659.6 130.2Q660.8 130.5 661.4 131.1Q661.9 131.6 661.9 132.5L661.9 132.5Q661.9 133.3 661.5 133.9Q661.1 134.5 660.3 134.8Q659.5 135.2 658.5 135.2ZM665.4 135L664.0 135L664.0 126.3L665.4 126.3L665.4 135ZM664.7 124.8L664.7 124.8Q664.3 124.8 664.0 124.6Q663.7 124.3 663.7 123.9L663.7 123.9Q663.7 123.5 664.0 123.2Q664.3 123.0 664.7 123.0L664.7 123.0Q665.1 123.0 665.4 123.2Q665.7 123.5 665.7 123.9L665.7 123.9Q665.7 124.3 665.4 124.6Q665.1 124.8 664.7 124.8ZM671.4 138.5L671.4 138.5Q670.4 138.5 669.7 138.2Q669 138.0 668.5 137.6Q668.1 137.1 667.8 136.7L667.8 136.7L668.9 135.9Q669.1 136.2 669.4 136.5Q669.7 136.8 670.1 137.0Q670.6 137.2 671.4 137.2L671.4 137.2Q672.4 137.2 673.1 136.7Q673.8 136.2 673.8 135.1L673.8 135.1L673.8 133.4L673.6 133.4Q673.5 133.6 673.2 134.0Q673.0 134.3 672.5 134.6Q672.0 134.9 671.1 134.9L671.1 134.9Q670.1 134.9 669.2 134.4Q668.4 133.9 667.9 132.9Q667.4 132.0 667.4 130.6L667.4 130.6Q667.4 129.2 667.9 128.2Q668.4 127.3 669.2 126.7Q670.1 126.2 671.1 126.2L671.1 126.2Q672.0 126.2 672.5 126.4Q673.0 126.7 673.3 127.1Q673.5 127.4 673.7 127.7L673.7 127.7L673.8 127.7L673.8 126.3L675.2 126.3L675.2 135.2Q675.2 136.4 674.7 137.1Q674.2 137.8 673.3 138.1Q672.4 138.5 671.4 138.5ZM671.3 133.6L671.3 133.6Q672.1 133.6 672.7 133.2Q673.2 132.9 673.5 132.2Q673.8 131.5 673.8 130.6L673.8 130.6Q673.8 129.6 673.5 128.9Q673.2 128.2 672.7 127.8Q672.1 127.4 671.3 127.4L671.3 127.4Q670.5 127.4 670.0 127.8Q669.4 128.3 669.1 129.0Q668.9 129.7 668.9 130.6L668.9 130.6Q668.9 131.5 669.1 132.1Q669.4 132.8 670.0 133.2Q670.5 133.6 671.3 133.6ZM679.1 129.8L679.1 129.8L679.1 135L677.7 135L677.7 126.3L679.0 126.3L679.0 127.9Q679.4 127.1 680.0 126.7L680.0 126.7Q680.7 126.2 681.7 126.2L681.7 126.2Q682.6 126.2 683.2 126.5Q683.9 126.9 684.3 127.6Q684.6 128.3 684.6 129.5L684.6 129.5L684.6 135L683.2 135L683.2 129.6Q683.2 128.6 682.7 128.0Q682.2 127.4 681.3 127.4L681.3 127.4Q680.6 127.4 680.1 127.7Q679.6 128.0 679.4 128.5Q679.1 129.0 679.1 129.8Z "/></g><mask id="satori_om-id-1-3"><rect x="241" y="160" width="379" height="30" fill="#fff" mask="url(#satori_om-id)"/></mask><defs><clipPath id="satori_bc-id-1-3-0" clip-path="url(#satori_cp-id)"><path x="241" y="160" width="123" height="30" d="M256,160 h93 a15,15 0 0 1 15,15 v0 a15,15 0 0 1 -15,15 h-93 a15,15 0 0 1 -15,-15 v0 a15,15 0 0 1 15,-15"/></clipPath></defs><mask id="satori_om-id-1-3-0"><rect x="242" y="161" width="121" height="28" fill="#fff" mask="url(#satori_om-id)"/><path width="123" height="30" fill="none" stroke="#000" stroke-width="2" d="M245.393,164.393 A15,15 0 0 1 256,160 h93 a15,15 0 0 1 15,15 v0 a15,15 0 0 1 -15,15 h-93 a15,15 0 0 1 -15,-15 v0 A15,15 0 0 1 245.393,164.393"/></mask><path x="241" y="160" width="123" height="30" fill="rgba(168,85,247,0.10)" d="M256,160 h93 a15,15 0 0 1 15,15 v0 a15,15 0 0 1 -15,15 h-93 a15,15 0 0 1 -15,-15 v0 a15,15 0 0 1 15,-15" clip-path="url(#satori_cp-id)" mask="url(#satori_om-id)"/><path width="123" height="30" clip-path="url(#satori_bc-id-1-3-0)" fill="none" stroke="rgba(168,85,247,0.28)" stroke-width="2" d="M245.393,164.393 A15,15 0 0 1 256,160 h93 a15,15 0 0 1 15,15 v0 a15,15 0 0 1 -15,15 h-93 a15,15 0 0 1 -15,-15 v0 A15,15 0 0 1 245.393,164.393"/><g mask="url(#satori_om-id)" clip-path="url(#satori_cp-id)"><path fill="rgba(230,220,255,0.85)" d="M262.8 180.1L262.8 180.1Q261.6 180.1 260.7 179.7Q259.8 179.3 259.3 178.5Q258.9 177.7 258.9 176.7L258.9 176.7L258.9 170.5L260.8 170.5L260.8 176.5Q260.8 177.1 261.0 177.5Q261.3 177.9 261.7 178.2Q262.2 178.4 262.8 178.4L262.8 178.4Q263.4 178.4 263.8 178.2Q264.2 177.9 264.5 177.5Q264.7 177.1 264.7 176.5L264.7 176.5L264.7 170.5L266.7 170.5L266.7 176.7Q266.7 177.7 266.2 178.5Q265.7 179.3 264.8 179.7Q263.9 180.1 262.8 180.1ZM268.7 170.5L270.6 170.5L270.6 180L268.7 180L268.7 170.5ZM275.0 170.1L276.6 170.1L273.6 181.4L271.9 181.4L275.0 170.1ZM281.9 180.1L281.9 180.1Q280.7 180.1 279.8 179.7Q278.9 179.3 278.5 178.5Q278.0 177.7 278.0 176.7L278.0 176.7L278.0 170.5L279.9 170.5L279.9 176.5Q279.9 177.1 280.1 177.5Q280.4 177.9 280.8 178.2Q281.3 178.4 281.9 178.4L281.9 178.4Q282.5 178.4 282.9 178.2Q283.3 177.9 283.6 177.5Q283.8 177.1 283.8 176.5L283.8 176.5L283.8 170.5L285.8 170.5L285.8 176.7Q285.8 177.7 285.3 178.5Q284.8 179.3 283.9 179.7Q283.0 180.1 281.9 180.1ZM289.5 180L287.3 180L290.6 175.2L287.6 170.5L289.8 170.5L290.8 172.1Q291.1 172.6 291.3 172.9Q291.5 173.3 291.7 173.6L291.7 173.6Q291.7 173.7 291.8 173.8L291.8 173.8Q291.8 173.7 291.8 173.6L291.8 173.6Q292.0 173.3 292.2 172.9Q292.4 172.6 292.7 172.1L292.7 172.1L293.7 170.5L295.9 170.5L292.9 175.1L296.2 180L293.9 180L292.6 178.0Q292.3 177.6 292.2 177.3Q292.0 177.1 291.9 176.8L291.9 176.8Q291.8 176.7 291.7 176.5L291.7 176.5Q291.6 176.7 291.6 176.8L291.6 176.8Q291.4 177.1 291.3 177.3Q291.1 177.6 290.8 178.0L290.8 178.0L289.5 180Z M304.4 180L304.4 180L301.1 180L301.1 170.5L304.4 170.5Q305.8 170.5 306.9 171.1Q307.9 171.7 308.4 172.7Q309.0 173.8 309.0 175.3L309.0 175.3Q309.0 176.7 308.4 177.8Q307.9 178.9 306.9 179.4Q305.8 180 304.4 180ZM303.0 172.2L303.0 178.3L304.3 178.3Q305.2 178.3 305.8 178.0Q306.4 177.7 306.8 177.0Q307.1 176.3 307.1 175.3L307.1 175.3Q307.1 174.2 306.8 173.5Q306.4 172.9 305.8 172.5Q305.2 172.2 304.3 172.2L304.3 172.2L303.0 172.2ZM313.9 180.1L313.9 180.1Q312.8 180.1 312.0 179.7Q311.2 179.3 310.8 178.4Q310.4 177.6 310.4 176.5L310.4 176.5Q310.4 175.4 310.8 174.6Q311.2 173.7 312.0 173.3Q312.8 172.8 313.8 172.8L313.8 172.8Q314.5 172.8 315.1 173.0Q315.7 173.3 316.2 173.7Q316.6 174.2 316.9 174.8Q317.1 175.5 317.1 176.4L317.1 176.4L317.1 176.9L312.3 176.9Q312.3 177.5 312.5 177.9L312.5 177.9Q312.7 178.3 313.1 178.5Q313.4 178.7 313.9 178.7L313.9 178.7Q314.3 178.7 314.6 178.6Q314.8 178.5 315.0 178.3Q315.2 178.1 315.3 177.9L315.3 177.9L317.0 178.2Q316.9 178.8 316.4 179.2Q316.0 179.7 315.4 179.9Q314.7 180.1 313.9 180.1ZM312.3 175.8L312.3 175.8L315.3 175.8Q315.3 175.4 315.2 175.1L315.2 175.1Q315.0 174.7 314.7 174.5Q314.3 174.2 313.8 174.2L313.8 174.2Q313.3 174.2 313.0 174.5Q312.6 174.7 312.5 175.1L312.5 175.1Q312.3 175.4 312.3 175.8ZM321.6 180.1L321.6 180.1Q320.7 180.1 320.0 179.9Q319.4 179.7 319.0 179.2Q318.6 178.7 318.4 178.1L318.4 178.1L320.2 177.8Q320.3 178.2 320.7 178.5Q321.0 178.7 321.6 178.7L321.6 178.7Q322.2 178.7 322.5 178.5Q322.8 178.3 322.8 178.0L322.8 178.0Q322.8 177.7 322.6 177.6Q322.3 177.4 321.9 177.3L321.9 177.3L320.7 177.0Q319.6 176.8 319.1 176.3Q318.6 175.8 318.6 175.0L318.6 175.0Q318.6 174.3 319.0 173.8Q319.4 173.3 320.0 173.1Q320.7 172.8 321.6 172.8L321.6 172.8Q322.4 172.8 323.1 173.0Q323.7 173.3 324.0 173.7Q324.4 174.1 324.6 174.7L324.6 174.7L322.9 175.0Q322.8 174.6 322.5 174.4Q322.1 174.2 321.6 174.2L321.6 174.2Q321.2 174.2 320.8 174.4Q320.5 174.6 320.5 174.9L320.5 174.9Q320.5 175.2 320.7 175.4Q320.9 175.5 321.4 175.6L321.4 175.6L322.7 175.9Q323.7 176.1 324.2 176.6Q324.7 177.0 324.7 177.8L324.7 177.8Q324.7 178.5 324.3 179.0Q323.9 179.6 323.2 179.8Q322.5 180.1 321.6 180.1ZM328.2 180L326.3 180L326.3 172.9L328.2 172.9L328.2 180ZM327.3 172.0L327.3 172.0Q326.8 172.0 326.5 171.7Q326.2 171.4 326.2 171.0L326.2 171.0Q326.2 170.6 326.5 170.3Q326.8 170.0 327.3 170.0L327.3 170.0Q327.7 170.0 328.0 170.3Q328.3 170.6 328.3 171.0L328.3 171.0Q328.3 171.4 328.0 171.7Q327.7 172.0 327.3 172.0ZM333.3 182.8L333.3 182.8Q332.4 182.8 331.8 182.6Q331.1 182.4 330.7 182.0Q330.3 181.6 330.1 181.1L330.1 181.1L331.8 180.6Q331.8 180.8 332.0 181.0Q332.2 181.2 332.5 181.3Q332.8 181.4 333.3 181.4L333.3 181.4Q334.0 181.4 334.4 181.1Q334.9 180.8 334.9 180.1L334.9 180.1L334.9 178.7L334.7 178.7Q334.6 179.0 334.3 179.3Q334.1 179.6 333.7 179.7Q333.3 179.9 332.7 179.9L332.7 179.9Q331.9 179.9 331.3 179.5Q330.6 179.1 330.2 178.4Q329.9 177.6 329.9 176.4L329.9 176.4Q329.9 175.2 330.2 174.4Q330.6 173.6 331.3 173.2Q332.0 172.8 332.7 172.8L332.7 172.8Q333.3 172.8 333.8 173.0Q334.2 173.2 334.4 173.5Q334.7 173.8 334.8 174.1L334.8 174.1L334.9 174.1L334.9 172.9L336.7 172.9L336.7 179.9Q336.7 180.9 336.3 181.5Q335.9 182.2 335.1 182.5Q334.3 182.8 333.3 182.8ZM333.3 178.5L333.3 178.5Q333.8 178.5 334.2 178.2Q334.5 178.0 334.7 177.5Q334.9 177.1 334.9 176.4L334.9 176.4Q334.9 175.8 334.7 175.3Q334.5 174.9 334.2 174.6Q333.8 174.3 333.3 174.3L333.3 174.3Q332.8 174.3 332.5 174.6Q332.2 174.9 332.0 175.3Q331.8 175.8 331.8 176.4L331.8 176.4Q331.8 177.0 332.0 177.5Q332.2 178.0 332.5 178.2Q332.8 178.5 333.3 178.5ZM340.6 175.9L340.6 175.9L340.6 180L338.7 180L338.7 172.9L340.5 172.9L340.5 174.4Q340.8 173.7 341.2 173.3L341.2 173.3Q341.8 172.8 342.7 172.8L342.7 172.8Q343.4 172.8 344.0 173.1Q344.5 173.5 344.8 174.1Q345.1 174.7 345.1 175.5L345.1 175.5L345.1 180L343.2 180L343.2 175.8Q343.2 175.2 342.9 174.8Q342.6 174.4 341.9 174.4L341.9 174.4Q341.5 174.4 341.2 174.6Q340.9 174.8 340.7 175.1Q340.6 175.4 340.6 175.9Z "/></g><defs><clipPath id="satori_bc-id-1-3-1" clip-path="url(#satori_cp-id)"><path x="374" y="160" width="75" height="30" d="M389,160 h45 a15,15 0 0 1 15,15 v0 a15,15 0 0 1 -15,15 h-45 a15,15 0 0 1 -15,-15 v0 a15,15 0 0 1 15,-15"/></clipPath></defs><mask id="satori_om-id-1-3-1"><rect x="375" y="161" width="73" height="28" fill="#fff" mask="url(#satori_om-id)"/><path width="75" height="30" fill="none" stroke="#000" stroke-width="2" d="M378.39300000000003,164.393 A15,15 0 0 1 389,160 h45 a15,15 0 0 1 15,15 v0 a15,15 0 0 1 -15,15 h-45 a15,15 0 0 1 -15,-15 v0 A15,15 0 0 1 378.39300000000003,164.393"/></mask><path x="374" y="160" width="75" height="30" fill="rgba(168,85,247,0.10)" d="M389,160 h45 a15,15 0 0 1 15,15 v0 a15,15 0 0 1 -15,15 h-45 a15,15 0 0 1 -15,-15 v0 a15,15 0 0 1 15,-15" clip-path="url(#satori_cp-id)" mask="url(#satori_om-id)"/><path width="75" height="30" clip-path="url(#satori_bc-id-1-3-1)" fill="none" stroke="rgba(168,85,247,0.28)" stroke-width="2" d="M378.39300000000003,164.393 A15,15 0 0 1 389,160 h45 a15,15 0 0 1 15,15 v0 a15,15 0 0 1 -15,15 h-45 a15,15 0 0 1 -15,-15 v0 A15,15 0 0 1 378.39300000000003,164.393"/><g mask="url(#satori_om-id)" clip-path="url(#satori_cp-id)"><path fill="rgba(230,220,255,0.85)" d="M393.8 180L391.9 180L391.9 170.5L398.1 170.5L398.1 172.1L393.8 172.1L393.8 174.8L397.7 174.8L397.7 176.4L393.8 176.4L393.8 180ZM401.6 180L399.7 180L399.7 172.9L401.6 172.9L401.6 180ZM400.7 172.0L400.7 172.0Q400.3 172.0 400.0 171.7Q399.7 171.4 399.7 171.0L399.7 171.0Q399.7 170.6 400.0 170.3Q400.3 170.0 400.7 170.0L400.7 170.0Q401.1 170.0 401.4 170.3Q401.7 170.6 401.7 171.0L401.7 171.0Q401.7 171.4 401.4 171.7Q401.1 172.0 400.7 172.0ZM406.7 182.8L406.7 182.8Q405.8 182.8 405.2 182.6Q404.5 182.4 404.1 182.0Q403.7 181.6 403.5 181.1L403.5 181.1L405.2 180.6Q405.3 180.8 405.4 181.0Q405.6 181.2 405.9 181.3Q406.3 181.4 406.7 181.4L406.7 181.4Q407.4 181.4 407.9 181.1Q408.3 180.8 408.3 180.1L408.3 180.1L408.3 178.7L408.1 178.7Q408.0 179.0 407.8 179.3Q407.5 179.6 407.1 179.7Q406.7 179.9 406.2 179.9L406.2 179.9Q405.4 179.9 404.7 179.5Q404.0 179.1 403.7 178.4Q403.3 177.6 403.3 176.4L403.3 176.4Q403.3 175.2 403.7 174.4Q404.1 173.6 404.7 173.2Q405.4 172.8 406.2 172.8L406.2 172.8Q406.8 172.8 407.2 173.0Q407.6 173.2 407.8 173.5Q408.1 173.8 408.2 174.1L408.2 174.1L408.3 174.1L408.3 172.9L410.2 172.9L410.2 179.9Q410.2 180.9 409.7 181.5Q409.3 182.2 408.5 182.5Q407.7 182.8 406.7 182.8ZM406.8 178.5L406.8 178.5Q407.2 178.5 407.6 178.2Q407.9 178.0 408.1 177.5Q408.3 177.1 408.3 176.4L408.3 176.4Q408.3 175.8 408.1 175.3Q407.9 174.9 407.6 174.6Q407.2 174.3 406.8 174.3L406.8 174.3Q406.3 174.3 405.9 174.6Q405.6 174.9 405.4 175.3Q405.2 175.8 405.2 176.4L405.2 176.4Q405.2 177.0 405.4 177.5Q405.6 178.0 405.9 178.2Q406.3 178.5 406.8 178.5ZM414.0 180L412.1 180L412.1 172.9L413.8 172.9L413.9 174.3Q414.1 173.9 414.3 173.6L414.3 173.6Q414.6 173.2 415.0 173.0Q415.5 172.8 415.9 172.8L415.9 172.8Q416.7 172.8 417.2 173.3L417.2 173.3Q417.6 173.7 417.8 174.4L417.8 174.4Q417.9 174.0 418.2 173.7L418.2 173.7Q418.5 173.2 419.0 173.0Q419.5 172.8 420.1 172.8L420.1 172.8Q420.7 172.8 421.2 173.1Q421.7 173.4 422.0 173.9Q422.3 174.4 422.3 175.2L422.3 175.2L422.3 180L420.4 180L420.4 175.6Q420.4 175.0 420.1 174.7Q419.8 174.4 419.3 174.4L419.3 174.4Q418.9 174.4 418.7 174.5Q418.4 174.7 418.3 175.0Q418.1 175.3 418.1 175.6L418.1 175.6L418.1 180L416.3 180L416.3 175.5Q416.3 175.0 416.0 174.7Q415.7 174.4 415.2 174.4L415.2 174.4Q414.8 174.4 414.6 174.5Q414.3 174.7 414.1 175.0Q414.0 175.3 414.0 175.7L414.0 175.7L414.0 180ZM426.2 180.1L426.2 180.1Q425.6 180.1 425.0 179.9Q424.5 179.7 424.2 179.2Q423.9 178.7 423.9 178.0L423.9 178.0Q423.9 177.4 424.1 177.0Q424.3 176.6 424.7 176.4Q425.1 176.1 425.5 176.0Q426.0 175.9 426.5 175.8L426.5 175.8Q427.2 175.8 427.5 175.7Q427.9 175.7 428.1 175.5Q428.3 175.4 428.3 175.2L428.3 175.2L428.3 175.2Q428.3 174.9 428.1 174.7Q428.0 174.4 427.8 174.3Q427.5 174.2 427.2 174.2L427.2 174.2Q426.8 174.2 426.5 174.3Q426.2 174.4 426.1 174.6Q425.9 174.8 425.8 175.0L425.8 175.0L424.1 174.8Q424.2 174.1 424.7 173.7Q425.1 173.3 425.7 173.0Q426.4 172.8 427.2 172.8L427.2 172.8Q427.7 172.8 428.3 173.0Q428.8 173.1 429.2 173.4Q429.7 173.7 429.9 174.1Q430.2 174.6 430.2 175.2L430.2 175.2L430.2 180L428.4 180L428.4 179.0L428.3 179.0Q428.1 179.3 427.8 179.6Q427.6 179.8 427.2 180.0Q426.8 180.1 426.2 180.1ZM426.8 178.8L426.8 178.8Q427.2 178.8 427.6 178.6Q427.9 178.4 428.1 178.1Q428.3 177.8 428.3 177.5L428.3 177.5L428.3 176.7Q428.2 176.8 428.0 176.8Q427.8 176.9 427.6 176.9Q427.4 176.9 427.2 177.0Q427.0 177.0 426.9 177.0L426.9 177.0Q426.5 177.1 426.2 177.2Q426.0 177.3 425.8 177.5Q425.7 177.7 425.7 178.0L425.7 178.0Q425.7 178.2 425.8 178.4Q426.0 178.6 426.2 178.7Q426.5 178.8 426.8 178.8Z "/></g><defs><clipPath id="satori_bc-id-1-3-2" clip-path="url(#satori_cp-id)"><path x="459" y="160" width="78" height="30" d="M474,160 h48 a15,15 0 0 1 15,15 v0 a15,15 0 0 1 -15,15 h-48 a15,15 0 0 1 -15,-15 v0 a15,15 0 0 1 15,-15"/></clipPath></defs><mask id="satori_om-id-1-3-2"><rect x="460" y="161" width="76" height="28" fill="#fff" mask="url(#satori_om-id)"/><path width="78" height="30" fill="none" stroke="#000" stroke-width="2" d="M463.39300000000003,164.393 A15,15 0 0 1 474,160 h48 a15,15 0 0 1 15,15 v0 a15,15 0 0 1 -15,15 h-48 a15,15 0 0 1 -15,-15 v0 A15,15 0 0 1 463.39300000000003,164.393"/></mask><path x="459" y="160" width="78" height="30" fill="rgba(168,85,247,0.10)" d="M474,160 h48 a15,15 0 0 1 15,15 v0 a15,15 0 0 1 -15,15 h-48 a15,15 0 0 1 -15,-15 v0 a15,15 0 0 1 15,-15" clip-path="url(#satori_cp-id)" mask="url(#satori_om-id)"/><path width="78" height="30" clip-path="url(#satori_bc-id-1-3-2)" fill="none" stroke="rgba(168,85,247,0.28)" stroke-width="2" d="M463.39300000000003,164.393 A15,15 0 0 1 474,160 h48 a15,15 0 0 1 15,15 v0 a15,15 0 0 1 -15,15 h-48 a15,15 0 0 1 -15,-15 v0 A15,15 0 0 1 463.39300000000003,164.393"/><g mask="url(#satori_om-id)" clip-path="url(#satori_cp-id)"><path fill="rgba(230,220,255,0.85)" d="M478.8 180L476.9 180L476.9 170.5L483.1 170.5L483.1 172.1L478.8 172.1L478.8 174.8L482.7 174.8L482.7 176.4L478.8 176.4L478.8 180ZM484.7 170.5L486.6 170.5L486.6 180L484.7 180L484.7 170.5ZM491.0 180.1L491.0 180.1Q490.3 180.1 489.7 179.8Q489.2 179.4 488.9 178.8Q488.6 178.2 488.6 177.4L488.6 177.4L488.6 172.9L490.5 172.9L490.5 177.1Q490.5 177.7 490.8 178.1Q491.2 178.5 491.8 178.5L491.8 178.5Q492.2 178.5 492.5 178.3Q492.8 178.1 493.0 177.8Q493.1 177.5 493.1 177.0L493.1 177.0L493.1 172.9L495.0 172.9L495.0 180L493.2 180L493.2 178.5Q492.9 179.2 492.5 179.6L492.5 179.6Q491.9 180.1 491.0 180.1ZM499.2 172.9L500.5 172.9L500.5 174.4L499.2 174.4L499.2 177.9Q499.2 178.3 499.3 178.4Q499.5 178.6 499.8 178.6L499.8 178.6Q499.9 178.6 500.1 178.6Q500.3 178.5 500.4 178.5L500.4 178.5L500.7 179.9Q500.4 180.0 500.0 180.1Q499.7 180.1 499.4 180.1L499.4 180.1Q498.4 180.1 497.8 179.6Q497.3 179.1 497.3 178.1L497.3 178.1L497.3 174.4L496.3 174.4L496.3 172.9L497.3 172.9L497.3 171.2L499.2 171.2L499.2 172.9ZM504.2 172.9L505.5 172.9L505.5 174.4L504.2 174.4L504.2 177.9Q504.2 178.3 504.4 178.4Q504.5 178.6 504.9 178.6L504.9 178.6Q505.0 178.6 505.2 178.6Q505.4 178.5 505.5 178.5L505.5 178.5L505.7 179.9Q505.4 180.0 505.1 180.1Q504.8 180.1 504.5 180.1L504.5 180.1Q503.4 180.1 502.9 179.6Q502.3 179.1 502.3 178.1L502.3 178.1L502.3 174.4L501.3 174.4L501.3 172.9L502.3 172.9L502.3 171.2L504.2 171.2L504.2 172.9ZM510.3 180.1L510.3 180.1Q509.2 180.1 508.4 179.7Q507.6 179.3 507.2 178.4Q506.8 177.6 506.8 176.5L506.8 176.5Q506.8 175.4 507.2 174.6Q507.6 173.7 508.4 173.3Q509.2 172.8 510.2 172.8L510.2 172.8Q510.9 172.8 511.5 173.0Q512.1 173.3 512.6 173.7Q513.0 174.2 513.3 174.8Q513.5 175.5 513.5 176.4L513.5 176.4L513.5 176.9L508.7 176.9Q508.7 177.5 508.9 177.9L508.9 177.9Q509.1 178.3 509.5 178.5Q509.8 178.7 510.3 178.7L510.3 178.7Q510.7 178.7 510.9 178.6Q511.2 178.5 511.4 178.3Q511.6 178.1 511.7 177.9L511.7 177.9L513.4 178.2Q513.2 178.8 512.8 179.2Q512.4 179.7 511.8 179.9Q511.1 180.1 510.3 180.1ZM508.7 175.8L508.7 175.8L511.7 175.8Q511.7 175.4 511.5 175.1L511.5 175.1Q511.4 174.7 511.0 174.5Q510.7 174.2 510.2 174.2L510.2 174.2Q509.7 174.2 509.4 174.5Q509.0 174.7 508.8 175.1L508.8 175.1Q508.7 175.4 508.7 175.8ZM517.0 180L515.1 180L515.1 172.9L517.0 172.9L517.0 174.1L517.0 174.1Q517.2 173.5 517.7 173.1Q518.2 172.8 518.8 172.8L518.8 172.8Q518.9 172.8 519.1 172.8Q519.2 172.8 519.4 172.9L519.4 172.9L519.4 174.6Q519.2 174.5 519.0 174.5Q518.8 174.5 518.5 174.5L518.5 174.5Q518.1 174.5 517.8 174.7Q517.4 174.9 517.2 175.2Q517.0 175.5 517.0 176.0L517.0 176.0L517.0 180Z "/></g><defs><clipPath id="satori_bc-id-1-3-3" clip-path="url(#satori_cp-id)"><path x="547" y="160" width="73" height="30" d="M562,160 h43 a15,15 0 0 1 15,15 v0 a15,15 0 0 1 -15,15 h-43 a15,15 0 0 1 -15,-15 v0 a15,15 0 0 1 15,-15"/></clipPath></defs><mask id="satori_om-id-1-3-3"><rect x="548" y="161" width="71" height="28" fill="#fff" mask="url(#satori_om-id)"/><path width="73" height="30" fill="none" stroke="#000" stroke-width="2" d="M551.393,164.393 A15,15 0 0 1 562,160 h43 a15,15 0 0 1 15,15 v0 a15,15 0 0 1 -15,15 h-43 a15,15 0 0 1 -15,-15 v0 A15,15 0 0 1 551.393,164.393"/></mask><path x="547" y="160" width="73" height="30" fill="rgba(168,85,247,0.10)" d="M562,160 h43 a15,15 0 0 1 15,15 v0 a15,15 0 0 1 -15,15 h-43 a15,15 0 0 1 -15,-15 v0 a15,15 0 0 1 15,-15" clip-path="url(#satori_cp-id)" mask="url(#satori_om-id)"/><path width="73" height="30" clip-path="url(#satori_bc-id-1-3-3)" fill="none" stroke="rgba(168,85,247,0.28)" stroke-width="2" d="M551.393,164.393 A15,15 0 0 1 562,160 h43 a15,15 0 0 1 15,15 v0 a15,15 0 0 1 -15,15 h-43 a15,15 0 0 1 -15,-15 v0 A15,15 0 0 1 551.393,164.393"/><g mask="url(#satori_om-id)" clip-path="url(#satori_cp-id)"><path fill="rgba(230,220,255,0.85)" d="M569.0 180.1L569.0 180.1Q567.7 180.1 566.7 179.6Q565.7 179.0 565.2 177.9Q564.6 176.8 564.6 175.3L564.6 175.3Q564.6 173.7 565.2 172.6Q565.8 171.6 566.7 171.0Q567.7 170.4 569.0 170.4L569.0 170.4Q569.8 170.4 570.5 170.6Q571.2 170.9 571.7 171.3Q572.3 171.7 572.6 172.4Q573.0 173.0 573.1 173.8L573.1 173.8L571.1 173.8Q571.0 173.4 570.9 173.1Q570.7 172.8 570.4 172.6Q570.1 172.4 569.8 172.2Q569.4 172.1 569.0 172.1L569.0 172.1Q568.3 172.1 567.7 172.5Q567.2 172.9 566.9 173.6Q566.6 174.3 566.6 175.3L566.6 175.3Q566.6 176.3 566.9 177.0Q567.2 177.7 567.7 178.1Q568.3 178.4 569.0 178.4L569.0 178.4Q569.4 178.4 569.8 178.3Q570.1 178.2 570.4 178.0Q570.7 177.8 570.9 177.5Q571.0 177.1 571.1 176.8L571.1 176.8L573.1 176.8Q573.0 177.4 572.7 178.0Q572.4 178.6 571.8 179.1Q571.3 179.6 570.6 179.9Q569.9 180.1 569.0 180.1ZM574.7 170.5L576.6 170.5L576.6 180L574.7 180L574.7 170.5ZM581.7 180.1L581.7 180.1Q580.7 180.1 579.9 179.7Q579.1 179.2 578.7 178.4Q578.3 177.6 578.3 176.5L578.3 176.5Q578.3 175.4 578.7 174.6Q579.1 173.7 579.9 173.3Q580.7 172.8 581.7 172.8L581.7 172.8Q582.8 172.8 583.6 173.3Q584.4 173.7 584.8 174.6Q585.2 175.4 585.2 176.5L585.2 176.5Q585.2 177.6 584.8 178.4Q584.4 179.2 583.6 179.7Q582.8 180.1 581.7 180.1ZM581.7 178.6L581.7 178.6Q582.2 178.6 582.6 178.4Q582.9 178.1 583.1 177.6Q583.3 177.1 583.3 176.5L583.3 176.5Q583.3 175.8 583.1 175.4Q582.9 174.9 582.6 174.6Q582.2 174.3 581.7 174.3L581.7 174.3Q581.2 174.3 580.9 174.6Q580.5 174.9 580.4 175.4Q580.2 175.8 580.2 176.5L580.2 176.5Q580.2 177.1 580.4 177.6Q580.5 178.1 580.9 178.4Q581.2 178.6 581.7 178.6ZM589.3 180.1L589.3 180.1Q588.5 180.1 588.0 179.8Q587.4 179.4 587.1 178.8Q586.8 178.2 586.8 177.4L586.8 177.4L586.8 172.9L588.7 172.9L588.7 177.1Q588.7 177.7 589.1 178.1Q589.4 178.5 590.0 178.5L590.0 178.5Q590.4 178.5 590.7 178.3Q591.0 178.1 591.2 177.8Q591.4 177.5 591.4 177.0L591.4 177.0L591.4 172.9L593.3 172.9L593.3 180L591.5 180L591.5 178.5Q591.2 179.2 590.7 179.6L590.7 179.6Q590.2 180.1 589.3 180.1ZM597.8 180.1L597.8 180.1Q597.0 180.1 596.3 179.7Q595.7 179.3 595.3 178.5Q594.9 177.6 594.9 176.5L594.9 176.5Q594.9 175.3 595.3 174.4Q595.7 173.6 596.4 173.2Q597.0 172.8 597.8 172.8L597.8 172.8Q598.4 172.8 598.8 173.0Q599.2 173.2 599.5 173.5Q599.7 173.8 599.8 174.1L599.8 174.1L599.9 174.1L599.9 170.5L601.8 170.5L601.8 180L599.9 180L599.9 178.9L599.8 178.9Q599.7 179.1 599.4 179.4Q599.2 179.7 598.8 179.9Q598.4 180.1 597.8 180.1ZM598.4 178.6L598.4 178.6Q598.9 178.6 599.2 178.3Q599.6 178.1 599.7 177.6Q599.9 177.1 599.9 176.5L599.9 176.5Q599.9 175.8 599.7 175.3Q599.6 174.9 599.2 174.6Q598.9 174.3 598.4 174.3L598.4 174.3Q597.9 174.3 597.6 174.6Q597.2 174.9 597.0 175.4Q596.9 175.8 596.9 176.5L596.9 176.5Q596.9 177.1 597.0 177.6Q597.2 178.0 597.6 178.3Q597.9 178.6 598.4 178.6Z "/></g></svg>